<svg xmlns="http://www.w3.org/2000/svg" width="904.912" height="668.901" viewBox="0 0 904.912 668.901">
  <g id="Grupo_4493" data-name="Grupo 4493" transform="translate(-953 -366.449)">
    <g id="Grupo_3712" data-name="Grupo 3712" transform="translate(953 543.72)">
      <g id="body_Pointing-Up" data-name="body/Pointing-Up" transform="translate(0 164.993)">
        <path id="_-Background" data-name="游꿛-Background" d="M365.58,161.731c-4.291-11.828-1.067-26.8-9.915-36.589-2.617-1.591-4.006-.705-5.083,2.07-.65,3.649-2.172,16.221,3.306,16.215a77.8,77.8,0,0,1-1.43,23.464c-4.043-.65-6.991,1.43-9.941,2.976-2.2,1.154-4.4,2.011-7.056,1.219-10.967-1.934-14.092,9.587-14.226,18.99-.161,4.588-.593,15.284-2.613,19.736-9.143-18.945-28.346-27.57-46.645-31.828a15.581,15.581,0,0,1-7.156-3.732c-15.418-6.091-8.011-26.042-15.1-37.509-11.1-13.631-24.435-17.552-41.231-15.217-14.7,1.625-24.687,16.56-23.779,30.656.27,2.877-1.455,5.9-2.469,8.862-10.144,12.143-25.93,17.576-39.506,24.914-45.28,22.141-60.973,39.059-78.571,86.17-8.232,17.726-18.082,34.927-21.355,54.449-3.844,23-3.856,46.552-2.517,69.784-2.5.3.219,18.157,2.41,24.342a5.078,5.078,0,0,0,4.793,3.614c4.51,2.194,15.1,11.03,19.817,10.737,15.24-.937,30.055.514,44.738-.236,15.886-.813,31.619-3.777,47.574-3.393,27.82.67,7.9,2.322,36.686,3.629,18.171.839,84.463-9.088,102.582-7.467,14.738,3.1,21.461-2.129,19.214-17.531-.831-5.9-3.486-19.035,5.246-19.593,4.13.481,7.548,4.608,10.644,7.023,27.334,20.357,55.258,5.7,57.458-27.769,4.143-28.07,9.951-34.7-2.676-62.732-39.947-104.351,20.238-90.174-20.4-139.05C365.208,170.7,366.014,163.32,365.58,161.731Z" transform="translate(-35.971 -120.893)" fill="#fff"/>
        <path id="_-Ink" data-name="游둜-Ink" d="M352.034,123.335c2.18-2.143,5.646-1.609,7.773.3,2.162,1.936,3.466,4.978,4.577,7.6,2.407,5.695,5.665,12.563,6.343,18.878.662,6.163-1.3,11.782,0,18.161A32.289,32.289,0,0,1,382.455,178.4c4.48,6.65,6.607,14.4,4.36,22.279-1.16,4.08-3.133,7.859-4.539,11.851a55.8,55.8,0,0,0-2.861,13.151,104.841,104.841,0,0,0-.366,13.253c.067,2.288.187,4.575.307,6.859.108,2.048.471,4.185-.018,6.191l-.061.23c.191-.03.378-.067.565-.108,1.607-.358,3.021-.916,4.7-.7a1.688,1.688,0,0,1,1.43,2.493,4.469,4.469,0,0,1-.947,1.369c3.369,24.931,9.256,49.463,13.129,74.315a164.051,164.051,0,0,1,2.221,34l-.063,1.132c-.614,10.481-2.125,22.032-7.45,31.2a32.545,32.545,0,0,1-10.051,10.841,18.38,18.38,0,0,1-6.142,2.731c-11.449,4.561-23.557,3.442-34.352-2.59a62.939,62.939,0,0,1-13.663-9.789,22.919,22.919,0,0,1-4.925-6.983,9.209,9.209,0,0,0,.016,1.79l.24,1.16c1.8,8.616,8.651,40.455,8.742,43.128.049,1.444-12.084,1.408-13.4,1.451l-.037,0c-19.652.819-39.317.382-58.959-.431l-1.55-.063c-19.049-.807-39.778-1.892-58.848-2.448l.041-.319c.226-1.713,1.339-9.332,1.461-9.917l.006-.02c.54-2.178,1.583-8.956,1.034-11.205-1.414-5.79-7.783-4.468-12.265-3.854l-.943.124c-.727.1-2.491.358-2.475.376-.477-.5.658-1.9.935-2.28l.224-.311c1.2-1.686,2.292-3.436,2.174-5.608-.289-5.305-7.869-5.006-11.593-4.638-.262.026-.37.435-.067.5l.735.154c2.363.508,7.611,1.8,7.491,3.757-.067,1.111-1.249,1.93-1.971,2.629a13.668,13.668,0,0,0-2.176,2.552,6.088,6.088,0,0,0-.27,6.184c1.292,2.19,3.582,2.446,5.876,2.247l.13-.012c.5-.047,1.01-.1,1.514-.146l3.029-.3c.75-.073,3.161-.705,3.864-.27,1,.618-.2,3.356-.427,4.258l-.012.063c-.193,1.306-.309,14.984-.329,15.888-14.86-.345-29.723-3.651-44.583-2.875-11.806.618-23.58,1.684-35.365,2.609l-.3-2.531c-3.265-27.554-8.385-63.914-5.928-91.168.191-2.133-3.139-2.121-3.33,0-2.54,28.183,3.023,66.042,6.258,93.953-5.018.382-10.036.729-15.059.992l-1.282.065c-17.1.855-34.742.906-51.473-3.017a.837.837,0,0,1-.583-1.065.331.331,0,0,1-.486-.191c-1.95-6.428-2.938-22.793-3.822-29.874L39.907,401c-.908-6.881-1.428-13.84-1.8-20.762a323.479,323.479,0,0,1,.358-41.542c3.257-44.114,16.229-88.681,43.456-124.135,6.581-8.57,14.075-16.41,23.066-22.476,8.819-5.951,18.712-10.142,28.752-13.547,6.637-2.253,13.375-4.179,20.116-6.1.256-.126.51-.252.766-.376l.386-.185c2.4-1.136,4.756-2.381,7.212-3.391l.542-.223a31.545,31.545,0,0,1,11.552-2.647c6.237-3.141,11.475-7.891,10.967-15.508-.209-3.129,4.7-3.125,4.876,0,.459,8.316-4.663,14.214-11.191,18.173l.032.032.031.035a31.615,31.615,0,0,0,3.287,3.23,83.928,83.928,0,0,0,24.874,14.264c10.457,3.85,20.9,5,31.715,1.891a57.77,57.77,0,0,0,15.9-7.385,51.151,51.151,0,0,0,4.311-3.188,28.889,28.889,0,0,1-3.216-5.735c-1.757-4.1-3.208-9.644-1.416-13.968.441-1.065,2.194-1.723,2.8-.366,1.686,3.712,2.389,7.724,4.352,11.355a28.34,28.34,0,0,0,2.576,3.929c0,.065,7.371,1.327,7.371,1.327,8.913,0,17.3,3.421,25.189,7.7,4.659,2.529,9.24,5.219,13.807,7.915l8.925,5.266c.658.388,1.394.762,2.131,1.162a48.91,48.91,0,0,1-1-12.891c.427-6.483,2.95-13.576,9.628-15.886a14.516,14.516,0,0,1,9.876.459,18.385,18.385,0,0,1,4.269,2.3c.636-2.863,3.32-5.01,6.016-5.959a11.586,11.586,0,0,1,2.674-.6c-.026-.461-.03-.926-.024-1.4l.008-.362c.041-2.121.024-4.244-.022-6.363-.083-4.017-.274-7.95-.681-11.954-.341-3.314-.933-6.591-1.373-9.892l-.181-1.42C350.456,128.977,349.834,125.5,352.034,123.335ZM83.956,394.367l-.744-.441c-2.436-1.44-4.945-2.765-7.9-2.1a8.686,8.686,0,0,0-5.855,5.49,15.868,15.868,0,0,0-.943,3.738c-.108.725-.181,1.457-.307,2.178l-.043.225c-.057.288-.146.687-.226,1.036-.766-.339-1.54-.874-2.166-1.193l-.508-.254a15.891,15.891,0,0,0-3.718-1.428,7.052,7.052,0,0,0-7.521,2.779,9.244,9.244,0,0,0-.819,7.091l.037.167c.228,1,1.4,5,3.115,4.419,1.664-.567,1.887-2.781,2.013-4.254l.008-.142c.057-1.111-.163-3.446,1.095-3.87,1.573-.526,4.6,1.883,5.967,2.511,2.448,1.124,5.138,1.457,7.131-.731,1.786-1.963,1.938-4.835,2.4-7.324l.12-.626c.246-1.264.721-3.285,2.119-3.234,1.142.043,2.4,1.229,3.34,1.79a21.784,21.784,0,0,0,3.247,1.579,17.873,17.873,0,0,0,8.362,1.056,3.582,3.582,0,0,0,3.253-2.477,7.326,7.326,0,0,0,.445-1.39c.91-3.419-4.061-5.859-5.892-2.8A12.413,12.413,0,0,1,83.956,394.367Zm305.835-22.86a3.962,3.962,0,0,0-4.927.37l-.081.075a15.261,15.261,0,0,0-1.77,2.137l-.171-.132-.081-.065-.075-.061a9.819,9.819,0,0,0-3.73-2.2c-3.755-1.01-7.168,1.507-8.809,4.73a20.422,20.422,0,0,0-1.5,4.76l-.033.152c-.156.768-.358,2.326-1.032,2.708-.248.14-.809-.138-1.365-.459-1.268-.731-2.406-1.664-3.649-2.434-2.915-1.81-6.227-2.558-9.5-1.252a8.728,8.728,0,0,0-5.616,7.887c-.041,2.615,1.711,7.182,5.008,6.863a1.715,1.715,0,0,0,1.617-1.231c.284-2.021-1.31-4.5.518-6.172,1.766-1.613,3.6-.256,5.2.863l1.144.8a12.058,12.058,0,0,0,6.134,2.619,7.948,7.948,0,0,0,7.231-4.008c1.357-2.294,1.377-4.89,2.436-7.245.232-.516.829-.989.63-1.227a23.276,23.276,0,0,1,2.34,1.963,6.21,6.21,0,0,0,8.009-.561,16.3,16.3,0,0,0,2.07-3.027c.232-.378.524-.729.737-1.117a7.825,7.825,0,0,0,.311-1.146l.161-.752.016-.124A2.718,2.718,0,0,0,389.791,371.507ZM293.8,361.572a8.744,8.744,0,0,0-8.972.89c-2.891,2.044-4.311,5.181-5.276,8.5-.7,2.414-1.038,5.744-3.056,7.5-2.349,2.034-6.288-.126-8.767-.93-3-.969-6.605-1.367-9.531.069-2.869,1.406-4.252,4.277-4.549,7.351-.276,2.869.136,6.648,1.772,9.049a.316.316,0,0,0,.569-.075c1.075-2.649.868-5.68,1.743-8.421.931-2.926,3.117-3.547,5.89-2.759,2.895.821,5.544,2.357,8.519,2.9a10.434,10.434,0,0,0,8.816-2.115,15.078,15.078,0,0,0,4.24-6.9c.839-2.5.977-5.841,2.763-7.913a3.44,3.44,0,0,1,1.967-1.223c1.083-.1,1.475.707,2.351,1.325,2.31,1.631,6,1.662,7.412-1.205a3.155,3.155,0,0,0,0-3.192c-1.213-1.611-2.212-1.6-3.815-1.25a1.586,1.586,0,0,1-.171-.173l-.049-.059A6.28,6.28,0,0,0,293.8,361.572Zm-113.388-16.93c-.095-2.156-2.69-4.226-4.738-2.72-.329.24-.654.486-.973.742l-.13.142h0a3.688,3.688,0,0,1-1.113-.223l-.658-.211a9.8,9.8,0,0,0-5.232-.585c-3.173.7-5.185,3.434-6.219,6.341-.963,2.708-.646,5.471-1.1,8.247-.427,2.633-1.78,3.661-4.321,3.1l-.13-.03c-5.051-1.211-10.806-4.594-15.234.045-4.783,5.01-1.654,12.97,3.582,16.192a.3.3,0,0,0,.429-.331c-.7-3.238-2.725-6.325-2.044-9.762a3.608,3.608,0,0,1,4.486-3.129c4.965.8,9.608,4.758,14.7,1.885a10.257,10.257,0,0,0,4.581-6.895c.569-2.485.408-5.288,1.5-7.633,1.2-2.566,3.212-.7,5.382-.356C176.26,349.957,180.577,348.345,180.414,344.642Zm166.575-76.68a1.665,1.665,0,0,0-3.328,0c-.122,27.147-12.816,52.237-15.1,79.114-.181,2.135,3.149,2.123,3.328,0C334.172,320.192,346.866,295.152,346.988,267.962ZM72.148,312.4c-1.753-1.985-4.321-1.369-6.4-.374a68.986,68.986,0,0,0-9,5.114.745.745,0,0,0,.571,1.355,52.378,52.378,0,0,0,6.2-1.516,32.927,32.927,0,0,1,4.738-1.465,9.622,9.622,0,0,1-.366,1.085c-.264.727-.569,1.44-.827,2.168-.516,1.453-.981,2.928-1.432,4.4l-.225.738c-.935,3.094-1.845,7.6,2.475,8.547,1.6.354,3.194-.345,4.685-.894l.307-.112,5.441-1.928a10.619,10.619,0,0,0,2.387-.794l-.087.414a7.88,7.88,0,0,1-.457,1.633l-.13.3c-1.353,3.066-3.056,6.132-1.481,9.522a6.453,6.453,0,0,0,7.619,3.456c2.924-.784,5.039-4.076,3.527-6.942a2.468,2.468,0,0,0-3.263-.924l-.282.187a6.17,6.17,0,0,0-.914.656l-.242.061c.175-.52.3-1.317.449-1.672l.571-1.294c1.058-2.43,1.977-4.9,1.168-7.629-2.314-7.806-10.164-3.369-15.953-1.14.085-.331.169-.656.24-.975.248-1.13.522-2.255.792-3.379l.555-2.322C73.31,316.537,73.7,314.154,72.148,312.4Zm296.221-8.712a.255.255,0,0,0-.382-.219c-3.7,2.489-6.178,7.686-4.787,12.115a8.543,8.543,0,0,0,4.128,5.079c2.507,1.3,5.276.8,7.909.248l1.119-.238a4.9,4.9,0,0,1,2.369-.067c.276.077.595.317.857.368-.108.183-.223.5-.282.62l-.191.384a7.429,7.429,0,0,0-.494,1.2,5.7,5.7,0,0,0,.341,4.124,7.6,7.6,0,0,0,6.27,3.956c1.546.138,5.437-1.215,6.357.423,1.827,3.255,7.028,1.065,6.016-2.536a6.8,6.8,0,0,0-5.024-4.669,10.4,10.4,0,0,0-3.909-.16c-.508.055-1.018.134-1.528.189l-.382.035c.1-.008-1.06-.035-1.524-.067l.1-.268c.016-.037.03-.071.041-.095a7.6,7.6,0,0,0,.868-3.448,6.412,6.412,0,0,0-3.4-5.254,9.725,9.725,0,0,0-5.819-1.164c-2.184.242-5.29,1.973-7.438,1.061-1.619-.687-2.168-3.086-2.194-4.657C367.353,308.285,368.3,306.042,368.369,303.685ZM217.6,288.163c-5.955-2.674-11.069,1.892-14.565,6.262-.179.224.047.6.331.429l.465-.29c2.854-1.79,6.018-3.905,9.553-3.3,3.2.553,3.994,2.649,3.358,5.5l-.187.8c-.677,2.94-1.2,5.983.49,8.718,1.591,2.582,4.7,3.71,7.607,3.779,3.356.081,6.253-1.481,9.321-2.57l.244-.085c1.3-.451,6.058-1.627,6.122,1.052.032,1.225-1.28,2.663-1.784,3.763a10.765,10.765,0,0,0-1.091,4.551c.02,3.988,3.346,7.227,7.282,5.293a3.181,3.181,0,0,0,1.126-4.3c-1.124-1.956-1.579-1.853-.792-3.907l.226-.577c.969-2.473,1.741-5.02.652-7.615-2.174-5.185-8.694-5.813-13.352-4.1l-.169.065c-2.9,1.122-11.581,5.624-10.983-.742.234-2.507,1-4.911.465-7.446A7.563,7.563,0,0,0,217.6,288.163Zm-28.7-21.294c-1.087-1.914-4.736-1.229-4.433,1.2l.1.758a3.665,3.665,0,0,1-.565,2.928,3.979,3.979,0,0,1-3.7,1.286c-2.854-.362-4.675-3.011-7.816-2.393-2.55.5-4.313,2.59-5.333,4.866-1.079,2.412-1.056,5.026-1.861,7.507-.926,2.855-2.9,2.724-5.366,1.725l-.532-.219c-2.359-.981-4.726-2.072-7.355-1.6-4.366.78-8.127,7.5-4.035,10.739a1.186,1.186,0,0,0,2-.827l0-.209c-.02-2.015.488-4.616,2.8-5.091,2.448-.5,5.213,1.731,7.485,2.375,5.886,1.666,9.24-2.767,10.24-8.009l.035-.2c.319-1.835.571-5.23,2.491-6.089,1.022-.459,2.113.67,2.968,1.122a10.8,10.8,0,0,0,4.258,1.268C185.829,278.429,192.145,272.58,188.905,266.869Zm139.117-7.241c-1.833-.794-4.565-.35-5.012,2.04l-.272,1.5c-.532,2.907-1.379,6.542-4.236,7.59-1.786.654-3.838-.494-5.439-1.193a19.174,19.174,0,0,0-5.908-1.763c-4.275-.406-7.462,2.07-8.974,5.937l-.132.345c-1.219,3.249-2.867,9.464-.2,12.1a1.38,1.38,0,0,0,1.654.213c1.577-1.184,1.977-3.131,2.519-4.957l.047-.156a24.6,24.6,0,0,1,2.084-5.691c1.93-3.174,6.965.449,9.388,1.286a10.614,10.614,0,0,0,11.14-2.369,15.478,15.478,0,0,0,3.834-6.7,7.955,7.955,0,0,0,1.573.63,6.509,6.509,0,0,0,6.254-1.335c3.031-3.019,1.386-8.432-3.236-7.556a2.165,2.165,0,0,0-1.617,1.93l-.061.14h0C330.269,261.245,329,260.051,328.022,259.628Zm-214.23-26.964c-4.321-4.445-11.816-2.034-14.77,2.68a1.319,1.319,0,0,0,1.475,1.92c2.572-.709,6.2-3.5,8.917-1.723,2.015,1.317.92,4.758.735,6.682l-.026.287c-.234,2.621-.288,6.205,1.753,8.167,1.176,1.13,2.976.977,4.525.815l.492-.051a26,26,0,0,0,5.388-1.067,34.393,34.393,0,0,0,4.64-1.959l.378-.187c.67-.331,2.9-1.646,3.566-.821.349.431-.514,2.32-.7,2.741-.675,1.585-1.538,3.076-2.158,4.689a10.2,10.2,0,0,0,.351,8.755c1.489,2.627,4.716,4.756,7.578,2.737a2.6,2.6,0,0,0,0-4.413c-.865-.612-1.737-1.014-2.093-2.042-.465-1.337.134-2.757.715-4l.7-1.473c1.538-3.291,3.076-7.076.926-10.441-2.219-3.472-6.735-3.527-10.148-2.082-1.95.827-3.728,1.934-5.758,2.574a22.53,22.53,0,0,1-4.256.9c-.319-1.731.134-3.671.138-5.392C116.167,237.349,115.681,234.61,113.792,232.664Zm222.735-61.84c-7.288-1.069-10.817,5.453-11.32,11.733a51.327,51.327,0,0,0,1.914,16.965c.54,2.056,1.148,4.086,1.784,6.085a97.914,97.914,0,0,0,3.486,9.5c.412.931.829,1.869,1.294,2.769a25.929,25.929,0,0,1,4.2,4.766l.815,1.121h0l.219.3a51.149,51.149,0,0,1,5.384,9.145,55.509,55.509,0,0,1,3.259,9.642l.2.825c.624,2.542,1.544,5.577.431,7.942a42.451,42.451,0,0,0,6.678,1.611,56.208,56.208,0,0,0,9.77.36c3.123-.114,6.243-.356,9.352-.689l2.241-.246c.232-.028.465-.053.7-.083a1.4,1.4,0,0,1-.217-.362c-.8-1.914-.7-4.136-.784-6.193l-.012-.228q-.174-3.427-.217-6.859a105.734,105.734,0,0,1,.534-12.879,71.5,71.5,0,0,1,2.038-11.117,99.213,99.213,0,0,1,3.948-10.679c1.4-3.5,2.55-7.087,2.426-10.9a20.435,20.435,0,0,0-1.514-7,.233.233,0,0,1-.16.053,39.791,39.791,0,0,1-8.253-1.615,70.581,70.581,0,0,0-8.85-1.7l-.632-.075c-2.475-.278-5.171-.414-7.46.65-2.475,1.152-4.035,3.716-4.976,6.176l-.1.284c-1.67,4.663-1.288,10.886,3.878,13.094,1.6.685,5.26,1.107,6.083-1.065.37-.991-.39-2.456-.677-3.393a10.788,10.788,0,0,1-.534-3.379,1.913,1.913,0,0,1,1.794-1.875l.091-.006c1.806-.079,5.53-2.16,5.892.837a1.678,1.678,0,0,1-.845,1.477,10.041,10.041,0,0,1-2.97,1.166c.14.624.341,1.235.536,1.843a1.082,1.082,0,0,1,.384-.108c1.526-.124,3.037.116,4.563.134l.835.006a6.7,6.7,0,0,1,3.367.689,1.519,1.519,0,0,1,0,2.592c-2.292,1.591-6.174.658-8.562-.957a4.974,4.974,0,0,1-.3,2.534c-1.032,2.607-3.99,3.905-6.635,4.017a10.6,10.6,0,0,1-6.475-1.94c-.382,1.369-1,2.684-1.264,4.1-.351,1.865.067,4.045-.583,5.8s-3.159,2.946-4.61,1.215c-2.125-2.531-1.465-6.538.4-9.1a7.788,7.788,0,0,1,4.64-3.159,12.026,12.026,0,0,1-2.946-4.329.237.237,0,0,1-.158.008c-5.979-1.636-9.232-7.056-9.433-12.745a11.953,11.953,0,0,1-1.376.855,2.02,2.02,0,1,1-1.02-3.763,9.147,9.147,0,0,0,2.273-.059c.1-.016.2-.035.307-.057.067-.437.154-.874.262-1.308a21.047,21.047,0,0,1-6.806-.595c-1.881-.412-1.444-3.4.449-3.334l.3.014c2.485.118,6.152.52,8.281-1.054a13.635,13.635,0,0,1,1.239-1.536,3.317,3.317,0,0,0,.154-.384C344.391,173.064,338.969,171.183,336.527,170.825ZM271.1,217.2a7.854,7.854,0,0,0-7.777,2.418,16.91,16.91,0,0,0-3.247,6.276l-.433,1.3c-.632,1.841-1.357,3.3-3.612,2.6-2.889-.9-5.394-2.469-8.537-2.345a11.331,11.331,0,0,0-7.641,3.4,9.452,9.452,0,0,0-2.574,7.936l.03.175c.225,1.333,2.172,6.089,4.238,3.9.922-.977.74-2.058.959-3.3a7.63,7.63,0,0,1,1.382-3.3,4.915,4.915,0,0,1,5.406-1.761c2.682.794,5.051,2.428,7.94,2.466a8.606,8.606,0,0,0,7.294-4.009c1.355-2,1.837-4.338,2.789-6.51l.093-.207c.8-1.788,1.345-2.434,3.176-1.579l.64.307c2.741,1.3,5.825,2.5,8.661.66,2.635-1.707,3.757-5.138,1.542-7.635-1.223-1.379-4.053-1.144-4.846.624-.14.305-.27.612-.4.922a3.456,3.456,0,0,1-.7-.29A29.153,29.153,0,0,0,271.1,217.2ZM188.251,197c-3.236-1.745-5.939,1.688-5.421,4.787l.026.136c.018.093.063.3.116.532a4.128,4.128,0,0,1-.49-.091l-.752-.093a8.1,8.1,0,0,0-3.513.169c-2.792.9-4.165,3.614-4.232,6.4s1.367,5.012,1.788,7.661c.431,2.71-2.373,1.936-4.2,1.737l-.073-.006c-2.546-.258-5.223-.264-7.338,1.4a8.278,8.278,0,0,0-2.846,7.389c.28,2.45,1.812,6.219,4.586,6.607a.669.669,0,0,0,.727-.3c1.122-2.184-.439-4.594-.262-6.9.193-2.535,1.808-2.956,4.035-2.79,2.16.158,4.315.616,6.449-.028a6.586,6.586,0,0,0,4.47-5.032c.524-2.584-.439-4.986-1.063-7.442a5.885,5.885,0,0,1-.167-2.469,1,1,0,0,1,.244-.418,4.547,4.547,0,0,1,1.191.136l.431.041c2.345.213,4.6.071,6.278-1.867a4.7,4.7,0,0,0,1.091-3.488l-.043-.518a2.82,2.82,0,0,0-.392-1.428l0-.014h0c.087-.116.169-.234.244-.358l.073-.126A2.684,2.684,0,0,0,188.251,197Zm165.842-30.378a10.889,10.889,0,0,0-8.708,3.921,7.27,7.27,0,0,1,1.948,2.917,17.9,17.9,0,0,1,3.753-1.526c3.946-1.1,9.348-1.087,12.668,1.623,1.739,1.416-.171,3.954-2.044,3.517-1.676-.392-3.133-1.117-4.892-1.2a13.232,13.232,0,0,0-4.49.567,12.155,12.155,0,0,0-5.758,3.712,10.881,10.881,0,0,0-1.3,1.922c-2.787,5.3-.687,12.887,3.163,17.245-1.51-5.02,0-10.939,3-15.1,3.622-5.006,9.037-5.573,14.744-4.791l.189.026c5.52.778,12.355,2.139,16.483,6.2a23.188,23.188,0,0,0-1.42-2.722c-3.127-5.154-8.316-9.173-13.7-12.042-.9-.486-1.814-.935-2.72-1.353C361.561,167.957,357.717,166.626,354.094,166.626Zm1.764-39.325-.014.059-.008.033a23.124,23.124,0,0,0,.488,5.343l.032.242c.482,3.887,1.121,7.779,1.327,11.7a66.679,66.679,0,0,1-.327,11.424l-.067.534a36.189,36.189,0,0,1-1.115,6.54,30.732,30.732,0,0,1,7.72,2.015q1.3.493,2.584,1.04c-1.073-5.707-1.646-11.5-2.812-17.186l-.228-1.132c-1.266-6.294-2.456-12.627-5.729-18.259a17.029,17.029,0,0,0-1.44-2.046A.806.806,0,0,0,355.858,127.3Z" transform="translate(-37.606 -119.868)" fill="#2b2e4f"/>
      </g>
      <g id="Grupo_3711" data-name="Grupo 3711" transform="translate(42.787 0)">
        <g id="head_Long" data-name="head/Long">
          <path id="_-Background-2" data-name="游꿛-Background" d="M249.609,123.317c-1.577-25.888-9.974-55.241-34.689-67.952C160.434,33.489,88.8,88.578,85.006,144.855c-1.323,19.264,9.368,40.313,28.907,45.67,4.344,5.756,10.912,9.273,17.4,12.324,77.23,40.085,127.116,7.5,118.3-79.532Z" transform="translate(-34.554 -24.172)" fill="#fff"/>
          <path id="_-Ink-2" data-name="游둜-Ink" d="M291.982,120.15q-4.094-11.373-8.645-22.574c-2.954-7.267-5.622-14.691-9.291-21.615C252.137,34.615,212.3,34.615,191.7,40.017c-10.679-4.6-30.684-3.3-41.8.849-18,6.725-39.949,33.179-47.452,45.063-16.568,26.243-26.906,61.17-15.9,91.493a68.4,68.4,0,0,0,5.339,11.17,43.711,43.711,0,0,1-4.457,5.077c-4.931,4.878-9.86,9.6-14.118,15.1a75.086,75.086,0,0,0-10.351,17.694c-4.925,12.093-5.162,25.784,1.349,37.322,5.664,10.039,15.7,17.515,27,18.228.581.081,1.162.154,1.747.213a32.648,32.648,0,0,0,5.408,6.723c6.386,6.075,21.609,9.193,30.292,9.394.447.356.9.715,1.345,1.069,5.313,4.183,10.888,8.4,16.987,11.379,4.132,2.019,9.549,3.7,13.858,2.249,1.956,1.306,5.163,1.032,7.1-.039a18.789,18.789,0,0,0,7.355-8.157c3.822-7.861,2.9-16.465,1.922-24.864-1.081-9.277-2.123-18.559-3.178-27.836-.829-7.255-1.694-14.63-3.9-21.619a49.791,49.791,0,0,0-4.563-10.372,1.717,1.717,0,0,0-.037-.807c-.634-2.056-1.94-3.133-3.488-4.531-.2-.179-.4-.362-.595-.549a18.76,18.76,0,0,0-2.487-2.4c-.343-.345-.679-.693-1.016-1.044a84.7,84.7,0,0,1-7.8-9.323c-2.28-3.206-4.34-6.552-6.3-9.961-1.993-3.466-3.31-7.292-5.3-10.735a.546.546,0,0,0-.845-.108,2.708,2.708,0,0,0-.935,2.089l-.309.047a2.091,2.091,0,0,0-2.558-1.794,10.133,10.133,0,0,1-5.658-.2c.319-2.127.614-4.258.906-6.392.534-3.929,1.028-7.871,1.453-11.812a17.1,17.1,0,0,1,3.045,1.05,14.626,14.626,0,0,1,3.915,2.546c1.132,1.04,1.914,2.444,3.295,3.167a2.1,2.1,0,0,0,3.043-2.338c-.945-3.633-6.292-5.715-9.6-6.4a15.317,15.317,0,0,0-3.458-.311c.262-2.531.5-5.061.687-7.6q.136-1.8.254-3.6a18.9,18.9,0,0,1,8-.644c.882.7,1.764,1.4,2.617,2.1,2.71,2.239,5.406,4.49,8.068,6.784.24.2.479.408.719.616a1.986,1.986,0,0,0,3.287-1.914c-2.172-15.792,7.5-28.354,18.819-38.084,12.531-10.776,35.313-12.03,50.217-30.7,6.863,1.4,22.188,5.548,28.511,15.628,8.854,14.126,7.7,26.782,8.371,42.807s2.387,32.765-1.252,48.577c-3.358,14.581-12.448,27.036-26.552,32.765-.351.142-.7.278-1.058.412a42.687,42.687,0,0,1-22.925,2.082c-8.492-1.607-15.581-5.494-22.645-10.278-.408-.27-1,.288-.7.7,9.311,12.346,27.6,16.469,42.107,13.212.679-.156,1.353-.321,2.022-.5a38.181,38.181,0,0,0,1.637,28.673,38.581,38.581,0,0,0,11.14,13.935c5.2,4.112,11.662,7.434,15.274,13.206,3.306,5.29,2.326,11.233-3.336,14.289-1.428.774-1.977,3.275-.563,4.374.542.416,1.083.841,1.637,1.256,3.169,2.393,11.877,6.889,13.287,7.056,12.525,1.485,20.945-7.714,26.341-18.565,6.335-12.735,4.689-28.255-2.292-40.384-5.6-9.73-16.631-19.321-12.245-31.637,1.566-4.4,4.764-8.149,7.871-11.536,3.545-3.86,7.357-7.472,10.756-11.467a40.849,40.849,0,0,0,8.047-13.261c2.442-7.275,1.227-15.142-.608-22.4C302.525,150.654,297.419,135.272,291.982,120.15Z" transform="translate(-59.333 -37.11)" fill="#2b2e4f"/>
        </g>
        <g id="face_Smiling" data-name="face/Smiling" transform="translate(123.566 85.805)">
          <path id="_-Ink-3" data-name="游둜-Ink" d="M161.016,159.313a16.926,16.926,0,0,1-7.117-5.477,3.283,3.283,0,0,1-.666-2.554,3.69,3.69,0,0,1,1.434-2.31,3.436,3.436,0,0,1,2.57-.7,3.216,3.216,0,0,1,2.172,1.438l.13.177a11.2,11.2,0,0,0,4.108,3.448,9.257,9.257,0,0,0,5.085.894c3.421-.386,5.78-2.237,8.287-4.752.309-.317.62-.644.933-.977a1.472,1.472,0,0,1,.774-.6,1.7,1.7,0,0,1,1.91.654,1.551,1.551,0,0,1,.266,1.032,10.674,10.674,0,0,1-3.525,6.755,15.112,15.112,0,0,1-16.361,2.964Zm10.079-40.189c3.143,1.912,7.93,6.367,4.549,11.1-3.978,4.175-9.7-.612-12.529-2.779-2.617-1.678-5.557,2.639-3.129,4.6,20.4,15.106,28.673-12.422,12.7-15.168C170.925,116.576,170.272,118.533,171.095,119.124Zm-36.55-17.572c.349-4.311,6.91-5.29,7.562-1.024a17.462,17.462,0,0,1-1.824,10.772c-1.644,3.285-5.776,1.753-6.087-1.241C133.777,106.048,134.33,104.234,134.545,101.552ZM184.5,99.644a3.5,3.5,0,0,1,3.818-1.554c4.945,1.445,3.488,8.468,1.751,11.887a3.44,3.44,0,0,1-5.372.691c-2.247-2.664-3.322-7.987-.467-10.613A3.416,3.416,0,0,1,184.5,99.644ZM140.214,82.692l.78-.138c2.416-.418,5.421-.819,7.131,1.124.906,1.03,1.219,2.946,0,3.933-2.143,1.735-4.514,1.061-7.082,1.209a28.236,28.236,0,0,0-6.191,1.056c-4.472,1.278-8.117,3.614-11.938,6.178-.5.337-1.014-.305-.774-.774,2.206-4.323,6.479-7.871,10.76-10.036A26.556,26.556,0,0,1,140.214,82.692Zm39.776-1.936.6.122c6.5,1.361,14.957,4.078,18.039,10.471.116.9-.008,1.1-.108,1.223l-.033.043a.844.844,0,0,1-.542.38c-.108-.026-.219-.053-.329-.083A18.689,18.689,0,0,1,194,91.5l-1.172-.577a32.249,32.249,0,0,0-4.189-1.786,49.279,49.279,0,0,0-9.541-2.107,3.92,3.92,0,0,1-1.912-.727,2.878,2.878,0,0,1-1.071-1.631,2.924,2.924,0,0,1,.331-2.446,3.091,3.091,0,0,1,1.51-1.3A3.522,3.522,0,0,1,179.99,80.756Z" transform="translate(-122.079 -80.681)" fill="#2b2e4f"/>
        </g>
      </g>
    </g>
    <g id="Grupo_3727" data-name="Grupo 3727" transform="translate(-465.158 17.01)">
      <rect id="Rect치ngulo_1673" data-name="Rect치ngulo 1673" width="199.727" height="146.805" rx="4.046" transform="translate(1495.245 357.195)" fill="#f4f5ff"/>
      <rect id="Rect치ngulo_1674" data-name="Rect치ngulo 1674" width="199.727" height="146.805" rx="4.046" transform="translate(1483.584 349.94)" fill="#fff" stroke="#2b2e4f" stroke-miterlimit="10" stroke-width="1"/>
      <path id="Trazado_5616" data-name="Trazado 5616" d="M1677.843,349.94H1489.054a5.468,5.468,0,0,0-5.469,5.469v9.041h199.727v-9.041A5.469,5.469,0,0,0,1677.843,349.94Z" transform="translate(0 0)" fill="#2b2e4f"/>
      <g id="Grupo_3725" data-name="Grupo 3725" transform="translate(1637.106 391.358)">
        <g id="Grupo_3720" data-name="Grupo 3720" transform="translate(0 0)">
          <rect id="Rect치ngulo_1675" data-name="Rect치ngulo 1675" width="13.367" height="9.413" fill="#2b2e4f"/>
          <line id="L칤nea_3" data-name="L칤nea 3" x2="9.241" transform="translate(19.509)" fill="none" stroke="#2b2e4f" stroke-miterlimit="10" stroke-width="1"/>
          <line id="L칤nea_4" data-name="L칤nea 4" x2="18.688" transform="translate(19.509 9.413)" fill="none" stroke="#2b2e4f" stroke-miterlimit="10" stroke-width="1"/>
          <line id="L칤nea_5" data-name="L칤nea 5" x2="18.688" transform="translate(19.509 6.384)" fill="none" stroke="#2b2e4f" stroke-miterlimit="10" stroke-width="1"/>
          <line id="L칤nea_6" data-name="L칤nea 6" x2="18.688" transform="translate(19.509 3.434)" fill="none" stroke="#2b2e4f" stroke-miterlimit="10" stroke-width="1"/>
        </g>
        <g id="Grupo_3721" data-name="Grupo 3721" transform="translate(0 19.689)">
          <rect id="Rect치ngulo_1676" data-name="Rect치ngulo 1676" width="13.367" height="9.413" fill="#2b2e4f"/>
          <line id="L칤nea_7" data-name="L칤nea 7" x2="9.241" transform="translate(19.509)" fill="none" stroke="#2b2e4f" stroke-miterlimit="10" stroke-width="1"/>
          <line id="L칤nea_8" data-name="L칤nea 8" x2="18.688" transform="translate(19.509 9.413)" fill="none" stroke="#2b2e4f" stroke-miterlimit="10" stroke-width="1"/>
          <line id="L칤nea_9" data-name="L칤nea 9" x2="18.688" transform="translate(19.509 6.384)" fill="none" stroke="#2b2e4f" stroke-miterlimit="10" stroke-width="1"/>
          <line id="L칤nea_10" data-name="L칤nea 10" x2="18.688" transform="translate(19.509 3.435)" fill="none" stroke="#2b2e4f" stroke-miterlimit="10" stroke-width="1"/>
        </g>
        <g id="Grupo_3722" data-name="Grupo 3722" transform="translate(0 39.379)">
          <rect id="Rect치ngulo_1677" data-name="Rect치ngulo 1677" width="13.367" height="9.413" fill="#2b2e4f"/>
          <line id="L칤nea_11" data-name="L칤nea 11" x2="9.241" transform="translate(19.509)" fill="none" stroke="#2b2e4f" stroke-miterlimit="10" stroke-width="1"/>
          <line id="L칤nea_12" data-name="L칤nea 12" x2="18.688" transform="translate(19.509 9.413)" fill="none" stroke="#2b2e4f" stroke-miterlimit="10" stroke-width="1"/>
          <line id="L칤nea_13" data-name="L칤nea 13" x2="18.688" transform="translate(19.509 6.384)" fill="none" stroke="#2b2e4f" stroke-miterlimit="10" stroke-width="1"/>
          <line id="L칤nea_14" data-name="L칤nea 14" x2="18.688" transform="translate(19.509 3.435)" fill="none" stroke="#2b2e4f" stroke-miterlimit="10" stroke-width="1"/>
        </g>
        <g id="Grupo_3723" data-name="Grupo 3723" transform="translate(0 59.068)">
          <rect id="Rect치ngulo_1678" data-name="Rect치ngulo 1678" width="13.367" height="9.413" fill="#2b2e4f"/>
          <line id="L칤nea_15" data-name="L칤nea 15" x2="9.241" transform="translate(19.509)" fill="none" stroke="#2b2e4f" stroke-miterlimit="10" stroke-width="1"/>
          <line id="L칤nea_16" data-name="L칤nea 16" x2="18.688" transform="translate(19.509 9.413)" fill="none" stroke="#2b2e4f" stroke-miterlimit="10" stroke-width="1"/>
          <line id="L칤nea_17" data-name="L칤nea 17" x2="18.688" transform="translate(19.509 6.384)" fill="none" stroke="#2b2e4f" stroke-miterlimit="10" stroke-width="1"/>
          <line id="L칤nea_18" data-name="L칤nea 18" x2="18.688" transform="translate(19.509 3.435)" fill="none" stroke="#2b2e4f" stroke-miterlimit="10" stroke-width="1"/>
        </g>
        <g id="Grupo_3724" data-name="Grupo 3724" transform="translate(0 78.758)">
          <rect id="Rect치ngulo_1679" data-name="Rect치ngulo 1679" width="13.367" height="9.413" fill="#2b2e4f"/>
          <line id="L칤nea_19" data-name="L칤nea 19" x2="9.241" transform="translate(19.509)" fill="none" stroke="#2b2e4f" stroke-miterlimit="10" stroke-width="1"/>
          <line id="L칤nea_20" data-name="L칤nea 20" x2="18.688" transform="translate(19.509 9.413)" fill="none" stroke="#2b2e4f" stroke-miterlimit="10" stroke-width="1"/>
          <line id="L칤nea_21" data-name="L칤nea 21" x2="18.688" transform="translate(19.509 6.384)" fill="none" stroke="#2b2e4f" stroke-miterlimit="10" stroke-width="1"/>
          <line id="L칤nea_22" data-name="L칤nea 22" x2="18.688" transform="translate(19.509 3.435)" fill="none" stroke="#2b2e4f" stroke-miterlimit="10" stroke-width="1"/>
        </g>
      </g>
      <line id="L칤nea_23" data-name="L칤nea 23" x2="115.644" transform="translate(1525.626 375.756)" fill="none" stroke="#2b2e4f" stroke-miterlimit="10" stroke-width="2"/>
      <line id="L칤nea_24" data-name="L칤nea 24" x2="83.995" transform="translate(1541.45 381.629)" fill="none" stroke="#2b2e4f" stroke-miterlimit="10" stroke-width="2"/>
      <g id="Grupo_3726" data-name="Grupo 3726" transform="translate(1492.753 398.854)">
        <path id="Trazado_5617" data-name="Trazado 5617" d="M1644.5,549.828v49.765h9.99V542.565Z" transform="translate(-1594.304 -520.414)" fill="#84eeeb"/>
        <path id="Trazado_5618" data-name="Trazado 5618" d="M1599.745,582.368l-5-3.2V622.42h9.99V578.736Z" transform="translate(-1562.907 -543.24)" fill="#84eeeb"/>
        <path id="Trazado_5619" data-name="Trazado 5619" d="M1549.992,556.753l-5,3.185v48.608h9.99v-48.6Z" transform="translate(-1531.509 -529.367)" fill="#84eeeb"/>
        <path id="Trazado_5620" data-name="Trazado 5620" d="M1793.763,520.6v61.375h9.99V514.644Z" transform="translate(-1688.498 -502.794)" fill="#84eeeb"/>
        <path id="Trazado_5621" data-name="Trazado 5621" d="M1699.251,516.238l-5,3.632v63.109h9.991V519.865Z" transform="translate(-1625.702 -503.799)" fill="#84eeeb"/>
        <path id="Trazado_5622" data-name="Trazado 5622" d="M1749,546.158l-5-3.627v57.041H1754V543.181Z" transform="translate(-1657.1 -520.392)" fill="#84eeeb"/>
        <path id="Trazado_5623" data-name="Trazado 5623" d="M1514.428,554.663v52.565h133.108" transform="translate(-1512.218 -528.048)" fill="none" stroke="#84eeeb" stroke-miterlimit="10" stroke-width="1"/>
        <path id="Trazado_5624" data-name="Trazado 5624" d="M1508.438,555.385l2.209-1.642,2.21,1.642" transform="translate(-1508.438 -527.468)" fill="none" stroke="#84eeeb" stroke-miterlimit="10" stroke-width="1"/>
        <path id="Trazado_5625" data-name="Trazado 5625" d="M1870.988,692.692l2.21,1.642-2.21,1.642" transform="translate(-1737.232 -615.154)" fill="none" stroke="#d4d8fd" stroke-miterlimit="10" stroke-width="1"/>
        <path id="Trazado_5626" data-name="Trazado 5626" d="M1521.3,516.3l13.738-8.76,18.355,11.742L1590.1,492.6l18.355,13.327,35.682-21.264" transform="translate(-1516.555 -483.872)" fill="none" stroke="#84eeeb" stroke-miterlimit="10" stroke-width="1"/>
        <path id="Trazado_5627" data-name="Trazado 5627" d="M1842.194,482.523l4.24.716-1.121,4.275" transform="translate(-1719.061 -482.523)" fill="none" stroke="#84eeeb" stroke-miterlimit="10" stroke-width="1"/>
        <line id="L칤nea_25" data-name="L칤nea 25" x2="9.693" transform="translate(13.488 86.398)" fill="none" stroke="#d4d8fd" stroke-miterlimit="10" stroke-width="1"/>
        <line id="L칤nea_26" data-name="L칤nea 26" x2="9.693" transform="translate(31.992 86.398)" fill="none" stroke="#d4d8fd" stroke-miterlimit="10" stroke-width="1"/>
        <line id="L칤nea_27" data-name="L칤nea 27" x2="9.693" transform="translate(50.497 86.398)" fill="none" stroke="#d4d8fd" stroke-miterlimit="10" stroke-width="1"/>
        <line id="L칤nea_28" data-name="L칤nea 28" x2="9.693" transform="translate(69.001 86.398)" fill="none" stroke="#d4d8fd" stroke-miterlimit="10" stroke-width="1"/>
        <line id="L칤nea_29" data-name="L칤nea 29" x2="9.693" transform="translate(87.506 86.398)" fill="none" stroke="#d4d8fd" stroke-miterlimit="10" stroke-width="1"/>
        <line id="L칤nea_30" data-name="L칤nea 30" x2="9.693" transform="translate(106.01 86.398)" fill="none" stroke="#d4d8fd" stroke-miterlimit="10" stroke-width="1"/>
      </g>
    </g>
    <g id="Grupo_3715" data-name="Grupo 3715" transform="translate(1353.744 478.5)">
      <g id="body_Macbook" data-name="body/Macbook" transform="translate(0 187.44)">
        <path id="_-Background-3" data-name="游꿛-Background" d="M6.8,239c-3.179,1.807-2.807,5.478-.9,7.606l-.09.09a8.913,8.913,0,0,0,3.863,1.883c3.987,42.174,15.02,84.831,22.258,126.613-1.579,2.274-1.233,5.592.415,7.944a5.89,5.89,0,0,0,4.294,5.451l-.018.025c4.85,5.076,20.115,17.7,23.642,7.146,25.859,4.428,52.441,5.343,78.587,7.482,3.348,15.89-1.679,33.525,5.709,48.133,7.937,13.059,18.44,20.048,17.9,20.252l24.169,5.251c-5.531,1.061-5.523,9.639-.07,10.946,8.942,1.357,18.476-1,27.541-.872,70.869-3.68,148.378-2.135,219.265-4.816,0-3.415,3.4-7.435,0-13.826,19.7,6.98,47.528,1.375,53.768-18.489,3.058.141,7.915-45.741,6.729-65.827a12.742,12.742,0,0,1,5.336-2.271c5.446-1.2,4.9-9.493.2-10.7-1.946-24.509-9.769-48.494-19.411-71.019-2.711-7.839-2.9-16.61-5.464-24.628-18.987-85.338-57.99-81.717-126.586-112.072,7.673-7.126-11.047-27.593-12.751-25.431-1.1-.123-12.429-.065-13.536.061-10.085-19.6-36.754-18.947-55.506-15.038-20.931,4.02-30.422,21.552-29.781,41.739-1-.7-15.166,3.242-11.624,9.283a8.714,8.714,0,0,0-2.78,5.666c-11.729-.592-34.617,13.476-44.606,20.411-5.852,4.655-9.02,11.366-11.375,18.3-3.688,11.274-7.487,22.534-12.985,33.09-.1.009-.2.027-.3.04-3.088-2.711-6.908-.105-10.316.193-1.011-.962-2.677-1.191-3.527.2-34.16-3.3-68.571-8.792-103-11.424l-21.563-2.117C11.5,237.989,9.362,237.536,6.8,239Z" transform="translate(-1.954 -120.693)" fill="#fff"/>
        <path id="_-Ink-4" data-name="游둜-Ink" d="M322.666,131.092c4.98-.462,10.238-.812,14.805.861.307-.269,1.388.265,1.265.525a14.571,14.571,0,0,1,4.047,2.785A48.811,48.811,0,0,1,349.6,144.2l.751,1.182c1.2,1.886,2.359,3.812,3.659,5.632l.137.2c1.063,1.558,1.6,3.226.011,4.729a1.894,1.894,0,0,1-2.256.292l-.067-.049-.126-.105c-.2.41-.419.816-.639,1.217,6.8,2.751,13.35,6.188,20.187,8.9,7.729,3.065,15.527,5.926,23.346,8.756l.675.244c15.086,5.464,30.44,11.2,43.526,20.689a84.039,84.039,0,0,1,18.3,18.014c5.549,7.471,9.641,15.882,13.2,24.451,7.117,17.16,12.509,35.176,17.666,53.046l1.471,5.1c3.276,11.4,6.366,22.853,9.146,34.382,2.832,11.747,5.877,23.471,7.148,35.514a6.216,6.216,0,0,1,.8,7.671c-2.018,3.191-5.563,3.778-9,3.96l-.561.027c-.89.038-.971-1.215-.2-1.484,2.22-.774,9.171-3.863,6.431-6.886a3.479,3.479,0,0,1-3.375-1.487,15.648,15.648,0,0,0-4.48.531,278.891,278.891,0,0,1,1.771,32.321c.056,10.126-.1,20.332-2.547,30.216A60.9,60.9,0,0,1,482.786,455c-5.339,6.588-11.958,11.976-20.5,13.379-8.778,1.442-17.666.2-26.294-2.372a25.437,25.437,0,0,1,.556,2.819c.388,2.621,1.489,6.426.262,8.839a2.221,2.221,0,0,1-3.446.444c-1.91-1.7-1.428-4.684-1.2-7.067l.038-.439a38.172,38.172,0,0,0,.11-5.774,175.279,175.279,0,0,1-21.588-9.422l-1.444-.729c-19.633-9.924-39.064-20.251-58.573-30.413l-9.792-5.105q-14.684-7.665-29.353-15.361a10.052,10.052,0,0,1-4.94-.713,7.463,7.463,0,0,1-4.186-3.345,5.357,5.357,0,0,1-.345-.91l-12.9-6.767c-4.908,2.379-10.285,3.883-15.314,6-5.388,2.262-10.684,4.731-16.063,7.011-10.673,4.525-21.6,8.363-33.337,8.408a3.112,3.112,0,0,1-2.792-1.487,2.7,2.7,0,0,1-2.26,1.1c-8.4-.13-16.751-.973-25.1-1.9l-5.442-.614c.094.518.182,1.038.258,1.558.215,1.43.4,2.865.585,4.3.43,3.363.657,6.745.839,10.13q.535,9.885.231,19.794c-.2,6.424-.841,12.855-1.67,19.225-.428,3.294-.91,6.581-1.469,9.857-.538,3.148-.715,6.334-2.984,8.747a2.124,2.124,0,0,1-3.511-.928c-1.065-3.081.137-6.428.758-9.541-4.751.767-11.274-1.334-14.751-2.693l-.513-.2a47.013,47.013,0,0,1-10.816-6.684,68.649,68.649,0,0,1-9.334-8.139,21.625,21.625,0,0,1-5.668-11.525c-.513-3.543-.74-7.126-.928-10.7l-.233-4.448a150.222,150.222,0,0,1,.547-24.137l-60.631-6.9c-11.386-1.3-22.974-2.09-34.27-4.034-4.449-.767-8.87-2.39-12.036-5.74a26.494,26.494,0,0,1-5.895-11.112,120.741,120.741,0,0,1-2.605-13.884c-.937-5.76-2.083-11.489-3.072-17.243q-2.933-17.028-5.738-34.077c-4.289-26.045-8.2-52.158-12.6-78.183a2.586,2.586,0,0,1,2.457-3.227,1003.046,1003.046,0,0,1,136.821,13.294c2.087.348,4.175.711,6.26,1.074.762-2.345,2.442-4.688,3.341-6.74,1.132-2.585,2.119-5.236,3.076-7.893l.635-1.771c2.372-6.648,4.525-13.617,7.886-19.841A47.792,47.792,0,0,1,177.565,193c5.168-3.836,11.236-6.415,17.207-8.783l1.491-.587c7.556-2.973,15.4-5.458,22.666-9.11.446-.224,1.011.386.572.742-10.76,8.7-24.131,12.859-35.225,21a45.542,45.542,0,0,0-13.094,14.727,123.774,123.774,0,0,0-7.644,17.507l-.922,2.489c-1.231,3.314-2.507,6.61-3.926,9.848l-.117.267a55.7,55.7,0,0,1-2.377,5.336c1.164.211,2.327.415,3.491.63,5.206.962,10.572,1.709,15.677,3.135,4.5,1.258,8.285,3.63,10.648,7.751,2.5,4.357,3.744,9.525,5.3,14.267l.673,2.074q10.08,31.1,17.832,62.871,4.48,18.421,8.162,37.023c.251,1.262.487,2.522.718,3.783a10.139,10.139,0,0,0,4.955-.491l1.078-.3c1.984-.527,3.89-.574,5.424.848a20.391,20.391,0,0,1,7.02-6.023,47.773,47.773,0,0,1,11.281-4.029l2-.5c3.832-.931,8.218-1.843,11.89-1.007a1.357,1.357,0,0,1,0,2.594c-2.386.8-4.946.751-7.424,1.1-2.186.307-4.357.729-6.5,1.244a37.964,37.964,0,0,0-10.955,4.02c-2.789,1.7-7.108,5.742-5.742,9.523,1.413,3.908,7.538,1.164,10.482-.267l1.511-.742c6.565-3.274,14.054-7.576,21.386-4.074,3.789,1.812,6.944,4.431,10.987,5.805a48.813,48.813,0,0,0,7.693,1.935,2.093,2.093,0,0,1,2.989-1.4Q298.033,392,309.283,397.8a6.8,6.8,0,0,0,3.33-1.269c3.832-2.807,5.675-8.256,6.926-12.7l.231-.825c1.522-5.527,3.085-12.121,2.276-17.839a10.479,10.479,0,0,0-1.473-4.07q-6.373-1.675-12.749-3.33c-6.736-1.747-13.848-3.061-20.33-5.606a1.724,1.724,0,0,1-.769-2.816c-8.28-2.289-16.447-5.081-24.655-7.572q-4.477-1.362-8.969-2.688l-5.984-1.771c-4.179-1.238-11.729-4.857-14.487.366a1.78,1.78,0,0,1-2.511.635c-1.433,1.76-3.014,3.419-4.583,5.022-2.031,2.074-4.469,5.547-7.464,5.868-.978.105-1.482-.969-1.341-1.762.274-1.536,1.155-2.184,2.267-3.15l.251-.22c1.361-1.213,2.7-2.457,4.1-3.63a66.608,66.608,0,0,1,6.058-4.671c1.682-4.283,6.585-5.2,10.765-4.44,5.706,1.043,11.422,3.153,16.947,5.036l1.271.431c10.789,3.619,21.8,7.278,32.046,12.334,5.561,1.027,11.059,2.868,16.491,4.341l7.269,1.969c-.749-.446-1.513-.872-2.274-1.289a.525.525,0,0,1,0-.9c3.975-2.44,8.31-1.025,11.579,2.144a13.55,13.55,0,0,1,2.428,3.188q18.155,4.8,36.312,9.612,25.107,6.7,50.124,13.671a40.732,40.732,0,0,1-1.175-5.529l-.173-.848c-.608-3.112-.987-6.287-1.448-9.422l-.179-1.233c-.944-6.588-1.677-13.153-2.052-19.805-.381-6.767-.859-13.568-.953-20.346-.049-3.469-.013-6.973.262-10.433.244-3.058.422-6.462,2.009-9.148a.407.407,0,0,1,.693,0c1.659,2.193,2.334,5.041,2.89,7.745l.226,1.11c.036.175.065.35.1.522a36.542,36.542,0,0,1,7.527-10.009c.343-.312,1.081-.013.865.5-1.825,4.4-3.91,8.68-5.388,13.224-.554,1.706-1.081,3.419-1.536,5.155l.112.776c.946,6.78,1.587,13.612,2.453,20.4l.2,1.561c.767,6.242,1.341,12.476,1.783,18.756.233,3.294.59,6.6.709,9.9l.007.17c.114,2.475.809,6.471-.648,8.7q2,.562,3.991,1.13A4.122,4.122,0,0,1,425.1,379.7c18.678-7.15,38.194-11.278,57.974-13.868,4.341-.569,10.139-2.538,15.224-2.359-2.507-8.807-4.3-17.794-6.469-26.693q-3.686-15.152-7.825-30.193c-5.383-19.59-11.159-39.194-18.139-58.281-6.065-16.581-14.211-32.593-27.978-44.079-11.718-9.776-26.16-15.823-40.256-21.326l-2.417-.94c-8.18-3.157-16.471-6.132-24.451-9.772-7.263-3.314-15.168-6.967-21.178-12.417-2.549,3.96-5.675,7.567-8.464,11.406a161.821,161.821,0,0,0-12.377,20.07c-3.5,6.709-6.1,13.834-9.6,20.545-1.715,3.294-8.294,16.332-12.917,10.083a2.089,2.089,0,0,1-.188-1.881c-.872-1.186-1.987-2.345-2.787-3.507q-1.594-2.317-3.209-4.623c-2.413-3.428-4.944-6.771-7.541-10.063q-3.8-4.816-7.588-9.637a60.01,60.01,0,0,1-4.029-5.343,16.134,16.134,0,0,0,.217,9.325c1.271,4.675,3.251,9.381,2.511,14.321-.688,4.617-3.81,7.576-7.209,10.366l-1.3,1.061a43.9,43.9,0,0,0-10.765,12.781,31.221,31.221,0,0,0-3.132,8.128c-.621,2.747-.583,5.581-1.325,8.287a1.55,1.55,0,0,1-2.8.368c-2.043-4.28-.939-9.624.574-13.985l.157-.446a41.426,41.426,0,0,1,7.993-13.276,47.118,47.118,0,0,1,5.123-5.023c2.058-1.735,4.444-3.274,6.085-5.446,3.222-4.265.9-9.722-.444-14.249l-.152-.516c-1.314-4.57-2.09-9.292-.3-13.866,1.675-4.294,4.969-7.583,8.581-10.316,3.888-2.942,8.2-5.227,12.319-7.805a142.407,142.407,0,0,0,13.579-9.608c3.964-3.182,7.83-6.532,11.554-10.007a24,24,0,0,1-4.989-6.57c-1.661-2.962-3.511-6.532-3.993-9.911-.8-5.641,6.415-7.729,8.552-2.359M147.849,424.549c.673,4.036,1.312,8.092,1.848,12.148.435,3.3.626,7.014,2.11,10.041a22.952,22.952,0,0,0,4.666,5.9l1.794,1.776a53.83,53.83,0,0,0,7.014,5.973,36.941,36.941,0,0,0,8.395,4.662c1.818.646,6.469,2.139,7.754.6a2.966,2.966,0,0,1,2.016-1.114l.105-.684.182-1.3c.881-6.5,1.451-13.036,1.881-19.574q.669-10.123.46-20.278c-.072-3.375-.146-6.749-.244-10.121-.018-.652-.123-1.5-.164-2.366l-15.186-1.653q-10.49-1.143-20.974-2.325l-6.352-.724m185.026-36.117A73.9,73.9,0,0,1,325.92,386c-1.271,5.027-3.206,10.218-6.877,14.009a13.533,13.533,0,0,1-2.072,1.744q41.056,21.162,82.056,42.422c16.718,8.659,33.846,19.117,53.091,20.46a36.447,36.447,0,0,0,12-.892,25.35,25.35,0,0,0,10.767-6.352,56.18,56.18,0,0,0,14.027-21.285c3.691-9.807,4.558-20.426,5.114-30.828l.09-1.733c.478-9.345.493-18.686.46-28.036l-.027-6.6-2.087.527c-2.655.688-5.276,1.518-7.958,2.092-3.845.823-7.74,1.424-11.59,2.244a344.826,344.826,0,0,0-43.943,12.776c1.955.556,3.913,1.1,5.868,1.661,10.576,3.027,21.592,6.52,29.337,14.767a.283.283,0,0,1-.4.4c-7.189-6.81-16.684-9.666-26.07-12.038l-1.926-.482c-11.9-2.953-23.835-5.745-35.716-8.754-24.01-6.081-47.909-12.633-71.845-18.994l-.659-.175M296.825,411.7l.753,1.036c1.251,1.731,2.471,3.491,3.673,5.256q4.325,6.347,8.59,12.736a280.925,280.925,0,0,1,15.994,26.122c.987,1.881-1.54,4.121-3.076,2.374a159.076,159.076,0,0,1-17.729-25.128q-3.861-6.622-7.413-13.422c-1.188-2.267-2.336-4.57-3.386-6.9l-.09-.2c-.863-1.883-2.02-3.946-1.935-6.038a.358.358,0,0,1,.534-.3M20.277,299.63c3.908,22.353,7.245,44.84,11.435,67.134l.043.224c1.39,7.379,3.332,16.644,11.615,18.931,4.875,1.343,10.238,1.419,15.245,1.982l84.9,9.552q19.231,2.163,38.451,4.446l1.2.139c12.388,1.435,24.848,2.565,37.052,5.164a2.715,2.715,0,0,1,1.123.509c-2.457-9.307-4.81-18.6-6.942-28-2.4-10.581-4.679-21.184-7.247-31.727q-7.756-31.861-17.314-63.261-2.4-7.9-4.926-15.767c-1.433-4.455-2.6-9.859-6.906-12.446-4.088-2.453-9.693-2.812-14.283-3.682l-2.753-.518q-6.885-1.285-13.785-2.471-33.038-5.684-66.407-9.115-35.856-3.683-71.914-4.749M222.534,407.154a3.3,3.3,0,0,1,1.937-.57c10.931.031,21.386-3.644,31.487-7.511l4.094-1.574c4.162-1.6,8.345-3.157,12.61-4.451,4.112-1.249,8.615-2.614,13.034-2.816l-.978-.513a2.358,2.358,0,0,1-.379-.249,22.2,22.2,0,0,1-5.648-.251,35.231,35.231,0,0,1-10.5-3.713c-3.984-2.164-7.18-4.038-11.9-3.047-4.164.877-7.794,3.168-11.556,5.038-4.585,2.283-14.108,6.146-16.213-1.323a9.224,9.224,0,0,1,1.148-7.4c-2.5-.218-7.011,2.8-10.307,3.02M258,362.467l5.2,1.294c.2.049.166.388-.049.37q-6.959-.6-13.886-1.415c-4.081-.484-8.2-1.433-12.305-1.583-3.836-.141-5.922,1.67-8.184,4.011l-1.538,1.608c-2.287,2.361-5,4.177-8.363,3.184a1.186,1.186,0,0,1,.314-2.318c4.511-.278,6.619-4.52,9.756-7.076,2.6-2.121,5.608-2.547,8.866-2.15m17.709-11.052c4.946,1.036,10.213,2.112,14.76,4.383.522.26.231,1.029-.28,1.031v.009c-4.48-.377-8.931-1.554-13.368-2.3-4.72-.8-9.484-1.379-14.254-1.8-4.924-.439-9.386-.9-13.7,1.917-3.848,2.514-7.193,5.872-11.769,6.971a.812.812,0,0,1-.906-1.179c2.379-3.747,6.525-6.475,10.332-8.789l.809-.491c4.222-2.545,8.547-2.527,13.276-2.067l.536.054M400.04,234.931c-1.119,6.4-2.287,12.794-3.294,19.213-2,12.763-3.895,25.541-5.877,38.306-.3,1.922-3.35,1.422-3.336-.451a208.042,208.042,0,0,1,3.955-38.8c1.244-6.359,2.63-12.673,4.348-18.922,1.639-5.964,3.247-12.6,6.323-18.018a.381.381,0,0,1,.7.191M370.7,272.876c.457,2.417-3.126,3.475-3.733,1.029-3.962-16-1.872-33.178,4.3-48.34.278-.684,1.363-.433,1.137.314m-84.914-1.572a11.874,11.874,0,0,1-5.368,3.2c-1.6.462-3.471.522-4.861,1.507-.987.7-1.372,1.814-2.1,2.744a1.212,1.212,0,0,1-1.89-.244c-1.137-1.821.025-3.718,1.538-4.919,2.265-1.8,5.148-1.612,7.711-2.675,5.132-2.132,6.345-7.655,9.271-11.778.274-.386,1-.3.969.262m-47.29-62.853.034.827a54.732,54.732,0,0,1-.52,9.648,72.493,72.493,0,0,1-2.141,9.953l-.052.182c-.563,2.034-1.1,4.96-2.762,6.431,1.594,2.98,3.108,6.007,4.677,8.973,2.561,4.839,5.209,9.751,9.359,13.424,3.85,3.408,7.7,6.3,10.352,10.812,1.91,3.249,5.229,9.511,2.058,12.866a1.363,1.363,0,0,1-1.63.211c-1.545-.966-2.164-2.565-2.7-4.213l-.285-.883a27.234,27.234,0,0,0-3.02-6.565c-2.874-4.437-7.413-7.2-10.711-11.249a51.853,51.853,0,0,1-6.944-12.363l-.379-.872a87.357,87.357,0,0,1-3.455-9.26,2.391,2.391,0,0,1-1.516-1c-1.168-1.513-.733-3.318-.1-5.032l.1-.269c-.052-.3-.112-.6-.159-.9a.309.309,0,0,1,.561-.238l.029.045.11-.287c.072-.188.141-.374.2-.558.973-2.821,1.848-5.682,2.581-8.574.693-2.729,1.3-5.478,1.991-8.206q.515-2.028.978-4.067a23.557,23.557,0,0,1,1.058-3.565.643.643,0,0,1-.094-.987.59.59,0,0,1,.783-.206m-10.366,19.346-1.446,1.121c-1.769,1.352-4.159,2.76-5.2,4.754-1.1,2.11-.534,4.861-.291,7.117l.069.619c.238,2.074.547,4.193.626,6.289a1.526,1.526,0,0,1,1.009.574c2.025,2.608,3.191,5.684,5.428,8.188,2.009,2.249,4.357,4.188,5.924,6.805,2.222,3.711,2.765,8.061,2.684,12.368.78-.608,1.561-1.211,2.35-1.8l.105-.081c1.659-1.271,3.937-3.558,6.22-3.045,1.868.422,3.289,2.942,4.348,4.368l.321.439a43.444,43.444,0,0,1,4.085,7.041.308.308,0,0,1-.531.312,42.074,42.074,0,0,0-4.2-4.823l-.1-.1c-.812-.825-3.184-3.46-4.182-3.3-.413.065-1.823,1.641-2.141,1.928l-.722.637c-.482.422-.969.836-1.46,1.251q-.861.723-1.724,1.442l-3.455,2.87c-1.5,1.249-4.41.585-4.244-1.758.415-5.783,1.159-12.267-2.8-17.068-3.1-3.767-7.345-7.285-8.857-12.059a2.307,2.307,0,0,1-3.108-1.715,67.746,67.746,0,0,1-.935-9.861l-.016-.256c-.17-2.722-.276-5.608.982-8.112,1.155-2.3,3.366-3.758,5.565-4.944l.294-.159c2.756-1.5,5.758-3.363,8.828-4,.5-.105,1.114.466.744.971M331.4,143.487l-1.171,1.482a98.978,98.978,0,0,1-11.13,11.545c-7.44,6.789-15.877,12.258-24.449,17.482l-2.274,1.383c-3.507,2.152-7.061,4.538-9.574,7.823a12.762,12.762,0,0,0-1,1.52c2.682,1.415,5.011,4.379,6.843,6.359l.989,1.076q3.945,4.305,7.7,8.774c2.742,3.267,5.426,6.592,7.969,10.018l.1.139c1.121,1.48,3.4,4.056,4.294,6.464.092-.11.186-.213.278-.323a49.257,49.257,0,0,0,5.8-9.339c3.276-6.525,5.967-13.3,9.5-19.7a123.323,123.323,0,0,1,12.556-18.424c3.085-3.774,11.935-13.42,12.063-13.585.336-.435.666-.874.984-1.321-.287-.408-.865-1.072-1.061-1.406-.422-.722-.839-1.448-1.244-2.179-.931-1.684-1.821-3.39-2.747-5.079a42.821,42.821,0,0,0-5.946-9.011,11.3,11.3,0,0,0-2.572-2.031m-13.265,2.28a64.957,64.957,0,0,1,1.368,6.354c3.22-3.17,6.354-6.538,9.653-9.655-3.709-1.309-8.043-1.229-12.059-1.565" transform="translate(-3.328 -115.394)" fill="#2b2e4f"/>
      </g>
      <g id="Grupo_3714" data-name="Grupo 3714" transform="translate(189.517 0)">
        <g id="head_Twists-2" data-name="head/Twists-2">
          <path id="_-Background-4" data-name="游꿛-Background" d="M89.922,174.324c-1.417,14.46,4.321,28.234,12.025,40.165,11.516,19.6,29.113,25.978,51.109,23.16,7.6-.682,15.173-1.738,22.664-3.173,11.852-2.841,28.321-3.919,34.366-16.171,14.951-9.135,15.96-25.238,27.9-31.178,12.547-4.628,11.007-17.095,10.576-28.019.007-16.716,3.975-33.243,10.231-48.683,3.148-7.516,6.839-15.193,8.085-23.305,2.186-13.018-3.222-29.514-17.068-32.907-24.628-7.267-51.106-3.978-76.111-.336-25.339,5.392-53.6,8.993-65.95,35.146-5.491,12.37-10.713,26.458-12.375,39.725C93.686,143.953,91.334,159.1,89.922,174.324Z" transform="translate(-85.547 -21.215)" fill="#fff"/>
          <path id="_-Ink-5" data-name="游둜-Ink" d="M180.961,40.882a23.616,23.616,0,0,1,1.7-1.98,3.049,3.049,0,0,1,3.648-.471,17.024,17.024,0,0,1,3.8,3.265c.926.016,1.852.031,2.776.054a5.522,5.522,0,0,1,4.706-2.363,6.519,6.519,0,0,1,5.153,2.843h0l1.034.072c.229-.381.457-.762.7-1.137a3.019,3.019,0,0,1,4.653-.6,18.7,18.7,0,0,1,2.543,2.473c.722.081,1.437.161,2.155.251a7.226,7.226,0,0,1,4.807-2.3,5.736,5.736,0,0,1,5.771,3.816l.031,0a8.283,8.283,0,0,1,7.081-1.827,6.95,6.95,0,0,1,4.563,3.332h0l.576.121a8.241,8.241,0,0,1,5.87.045,10.475,10.475,0,0,1,4.366,3.209c.336.105.673.213,1,.33.5.175.98.368,1.442.583a9.233,9.233,0,0,1,2.655,0,7.1,7.1,0,0,1,5.462,4.045,6.945,6.945,0,0,1,3.628.561,10.028,10.028,0,0,1,5.426,7.229,10.805,10.805,0,0,1,.175,2.931,3.777,3.777,0,0,1,3.013,1.464,13.838,13.838,0,0,1,2.435,4.518c.076.258.143.511.2.771a8.255,8.255,0,0,1,2.749,4.924,11.033,11.033,0,0,1,.094,3.26,9.083,9.083,0,0,1,3.953,5.258,10.957,10.957,0,0,1-.711,7.709h0l.076.242a8.971,8.971,0,0,1,3.747,3.978c2.036,4.105.13,7.442-3.186,10.059l-.251.2a1.147,1.147,0,0,0-.022.121,11,11,0,0,1,2.283,4.52,7.874,7.874,0,0,1-3.323,8.863,9.278,9.278,0,0,1,1.975,8.2,10.448,10.448,0,0,1-5.605,6.5c-.036.13-.076.265-.117.395a9.414,9.414,0,0,1,.877,3.44,10.393,10.393,0,0,1-5.108,9.276c-.112.231-.229.453-.35.673a5.985,5.985,0,0,1-.126,5.778,7.776,7.776,0,0,1-3.72,3.3,6.232,6.232,0,0,1-2.186,2.529,9,9,0,0,1-.229,3.852,9.98,9.98,0,0,1-4.137,5.664c.1.22.2.433.291.661,1.177,3.029-2.083,6.029-4.984,5.545a23.779,23.779,0,0,1,1.294,3.98c1.85,8.1-.352,18.588-8.148,22.92a16.631,16.631,0,0,1-6.108,1.787c-2.314.3-4.935.309-6.787,1.926-3.036,2.653-4.13,7.466-6.049,10.89a49.482,49.482,0,0,1-9.588,12.117,51.481,51.481,0,0,1-6.4,5.016c-2.085,1.388-4.579,3.377-7.088,1.787a2.034,2.034,0,0,1-1-1.742c.112-2.056,1.3-2.982,2.955-3.955l.448-.265a41.355,41.355,0,0,0,4.7-3.26,44.169,44.169,0,0,0,8.164-8.574,56.735,56.735,0,0,0,4.924-8.787l.65-1.377c1.563-3.305,3.65-6.5,7.079-8.081,3.664-1.688,8.2-.711,11.594-2.987,2.861-1.922,4.379-5.5,4.9-8.794a16.944,16.944,0,0,0-5.834-15.808c-1.325-.471-2.641-.966-3.944-1.514-1.025-.435-2.052-.879-3.054-1.357a14.224,14.224,0,0,0-4.029.213c-2.59.525-5.7,1.408-7.881,3.209.989-.439,1.957-.942,2.906-1.368a.608.608,0,0,1,.614,1.049,31.381,31.381,0,0,0-4.567,3.579,1.455,1.455,0,0,1-2.029,0c-3.1-2.937-.341-7.26.027-10.693a3.076,3.076,0,0,0-1.711-3.287c-2.04-1.312-4.218-2.258-5.987-3.987-3.379-3.3-4.549-7.973-4.919-12.538-.439-5.455.067-10.973-.157-16.447-.229-5.6-.435-11.574-1.787-17.036-.538-2.157-1.4-3.915-3.534-4.827-2.484-1.063-5.413-1.332-8.049-1.8l-1.276-.224a353.289,353.289,0,0,0-35.978-4.327,383.8,383.8,0,0,0-42.492-.558,22.181,22.181,0,0,0-5.357,3.493,231.247,231.247,0,0,0-9.366,37.214C99.136,156.976,97.69,171.535,96.593,186l-.038.511c-.556,7.509-.783,15.173.726,22.588a52.549,52.549,0,0,0,6.641,16.767,53.872,53.872,0,0,0,28.012,23.014,55.335,55.335,0,0,0,21.971,2.845c7.639-.534,14.642-2.915,21.534-6.123,3.639-1.693,6.774,3.37,3.2,5.473-12.133,7.159-28.007,8.39-41.537,5.265a58.443,58.443,0,0,1-32.907-21.357c-8.668-11.24-12.709-24.826-12.7-38.949,0-6.245.543-12.487,1.148-18.711l.688-7c.7-7.029,1.565-14.034,2.686-21.014,2.249-13.989,5.523-28.265,11.767-41.093a2.468,2.468,0,0,1-2.852-1.583l-.1-.251c-.951-2.39-2.744-3.727-4.191-5.776a6,6,0,0,1-1.128-3.144c-.038-.121-.074-.242-.105-.368-.04-.1-.081-.2-.121-.294l-.235-.59a7.056,7.056,0,0,1-3.363-7.821,11.329,11.329,0,0,1-1.839-2.235,8.431,8.431,0,0,1-1.417-8.848,13.856,13.856,0,0,1-2.973-3.341,10.546,10.546,0,0,1-.484-10.319,8.077,8.077,0,0,1,5.928-4.083c.094-.5.2-1,.318-1.5a7.723,7.723,0,0,1,2.327-8.4A9.428,9.428,0,0,1,100.3,48.1c.1-.108.193-.215.292-.316a17.893,17.893,0,0,1,6.444-4.274,9.6,9.6,0,0,1,7.823-6.052,9.264,9.264,0,0,1,7.029,2.991,10.378,10.378,0,0,1,4.507-2.8,8.2,8.2,0,0,1,3.8-.224,6.459,6.459,0,0,1,4.9,2.289,11.093,11.093,0,0,1,7.5-2.587,5.887,5.887,0,0,1,4.478,2.527,5.436,5.436,0,0,1,3.686-1.818,5.551,5.551,0,0,1,4.274,1.6,8.734,8.734,0,0,1,8.2-.971,8.437,8.437,0,0,1,1.218.561,29.821,29.821,0,0,1,4.787.146,8.774,8.774,0,0,1,2.2-1c1.175-1.126,3.11-1.612,4.366-.191A9.275,9.275,0,0,1,180.961,40.882Zm60.8,139.505c-.848,1.854-2.982,2.794-4.455,4.2a38.914,38.914,0,0,0-4,5.047c-2.161,2.845-6.993.283-4.937-2.888a16.456,16.456,0,0,1,6.424-5.422c2.025-1.011,4.836-2.3,6.928-1.11A.12.12,0,0,1,241.762,180.387Zm-1.514-77.15a2.215,2.215,0,0,1-1.356,3.016,1.353,1.353,0,0,0-.482,1.839,1.389,1.389,0,0,0,1.836.482,4.8,4.8,0,0,0,2.552-6.162c-.59-1.614-3.184-.913-2.59.715l.04.11Zm23.474-2.632c-.105.76-.832,1.289-1.453,1.675l-.166.1a1.345,1.345,0,0,0,1.357,2.321,5.475,5.475,0,0,0,2.913-3.74,4.766,4.766,0,0,0-1.868-4.175c-1.292-1.144-3.2.753-1.9,1.9C263.151,99.17,263.835,99.8,263.723,100.6Zm-8.491-22.151c1.408,1.065,1.182,2.4.025,3.628-1.188,1.256.709,3.159,1.9,1.9a5.572,5.572,0,0,0,1.783-4.137,5.11,5.11,0,0,0-2.442-3.778c-1.41-1.009-2.751,1.323-1.357,2.321l.092.067Z" transform="translate(-87.851 -37.097)" fill="#2b2e4f"/>
        </g>
        <g id="Grupo_3713" data-name="Grupo 3713" transform="translate(3.329 84.649)">
          <g id="face_Smiling-2" data-name="face/Smiling" transform="translate(14.409)">
            <path id="_-Ink-6" data-name="游둜-Ink" d="M134.956,156.691a15.744,15.744,0,0,1-17.029-3.085,11.144,11.144,0,0,1-3.668-7.032,1.618,1.618,0,0,1,.278-1.074,1.763,1.763,0,0,1,.874-.664,1.719,1.719,0,0,1,1.112-.016,1.531,1.531,0,0,1,.807.621c.325.345.648.686.973,1.016,2.608,2.617,5.063,4.543,8.623,4.946a9.641,9.641,0,0,0,5.292-.93,11.678,11.678,0,0,0,4.276-3.59l.135-.184a3.34,3.34,0,0,1,2.26-1.5,3.577,3.577,0,0,1,2.677.722,3.857,3.857,0,0,1,1.491,2.4,3.422,3.422,0,0,1-.693,2.659,17.629,17.629,0,0,1-7.408,5.7Zm-12.144-44.167c-16.626,2.859-8.011,31.51,13.216,15.787,2.527-2.04-.531-6.534-3.256-4.787-2.939,2.256-8.9,7.238-13.041,2.892-3.518-4.931,1.464-9.567,4.736-11.554C125.324,114.246,124.642,112.21,122.812,112.524Zm40.059-7.1c-.325,3.114-4.626,4.711-6.337,1.289a18.179,18.179,0,0,1-1.9-11.211c.679-4.437,7.509-3.419,7.87,1.067C162.732,99.362,163.307,101.252,162.872,105.427ZM110.8,95.014c2.971,2.731,1.852,8.271-.487,11.045a3.58,3.58,0,0,1-5.592-.72c-1.807-3.558-3.323-10.868,1.823-12.372a3.649,3.649,0,0,1,3.975,1.619A3.774,3.774,0,0,1,110.8,95.014ZM164.219,79.6c4.455,2.251,8.9,5.946,11.2,10.444.249.489-.285,1.155-.8.8-3.978-2.668-7.772-5.1-12.426-6.428a29.236,29.236,0,0,0-6.444-1.1c-2.673-.152-5.139.547-7.37-1.26-1.269-1.027-.944-3.02,0-4.092,1.778-2.022,4.906-1.605,7.422-1.17l.812.143A27.7,27.7,0,0,1,164.219,79.6Zm-46.9-4.493a3.22,3.22,0,0,1,1.572,1.357,3.042,3.042,0,0,1,.343,2.543,3.006,3.006,0,0,1-1.114,1.7,4.107,4.107,0,0,1-1.991.756,51.394,51.394,0,0,0-9.931,2.193,33.853,33.853,0,0,0-4.359,1.859l-1.22.6a19.252,19.252,0,0,1-3.76,1.466c-.114.031-.229.061-.341.087a.884.884,0,0,1-.565-.4l-.034-.043c-.105-.132-.235-.334-.112-1.276,3.206-6.653,12-9.48,18.774-10.9l.623-.128A3.705,3.705,0,0,1,117.323,75.106Z" transform="translate(-95.762 -74.85)" fill="#2b2e4f"/>
          </g>
          <g id="facial-hair_Full-3" data-name="facial-hair/Full-3" transform="translate(0 31.622)">
            <path id="_-Ink-7" data-name="游둜-Ink" d="M123.277,145.836c-3.092,2.074-5.381-1.906-5.247-4.614.206-4.029,3.646-11.747,8.314-13.666,9.554-2.121,26.326,1.482,22.27,14.624-.991,2.366-3.877,5.446-6.785,4.5-2.193-.709-2.771-4.332-4.2-5.946-5.794-5.718-10.314,1.509-14.348,5.1M92.855,125.58C88.189,147.423,87,172.594,96.6,193.227c27.711,24.962,87.71,15.377,111.736-11.792,18.442-12.124,16.583-39.967,14.675-59.824-1.121-9.951-.969-20.864-5.5-29.947.35-2.247-2.879-3.922-3.915-1.581-4.9,11.065-9.976,22.465-17.832,31.8-7.361,10.251-29.783,23.987-34.194,4.274-5.592-12.341-27.014-14.581-38.869-12.626-15.332,3.931-7.953,19.754-23.07,18.175a1.507,1.507,0,0,1-.545.056,26.815,26.815,0,0,1-2.193-4.4c.061-.318.155-.641.184-.96a3.231,3.231,0,0,0-4.067-1.3,2.363,2.363,0,0,0-.159.475" transform="translate(-89.335 -88.953)" fill="#2b2e4f"/>
          </g>
        </g>
      </g>
    </g>
    <g id="Grupo_3717" data-name="Grupo 3717" transform="translate(2752.441 -388.98)">
      <path id="Trazado_5607" data-name="Trazado 5607" d="M-1256.113,1095.21h-222.068a10.241,10.241,0,0,1-10.26-10.222V893.7a10.241,10.241,0,0,1,10.26-10.222h222.068a10.241,10.241,0,0,1,10.26,10.222v191.287A10.241,10.241,0,0,1-1256.113,1095.21Z" fill="#fff"/>
      <path id="Trazado_5608" data-name="Trazado 5608" d="M-1256.113,1095.21h-222.068a10.241,10.241,0,0,1-10.26-10.222V893.7a10.241,10.241,0,0,1,10.26-10.222h222.068a10.241,10.241,0,0,1,10.26,10.222v191.287A10.241,10.241,0,0,1-1256.113,1095.21Z" fill="#ecf0f5" opacity="0.36"/>
      <path id="Trazado_5609" data-name="Trazado 5609" d="M-1488.441,914.541V891.359c0-4.351,4.594-7.879,10.26-7.879h222.068c5.667,0,10.26,3.528,10.26,7.879v22.17" fill="#84eeeb" stroke="#2b2e4f" stroke-miterlimit="10" stroke-width="1"/>
      <path id="Trazado_5610" data-name="Trazado 5610" d="M-1247.318,969.055h0Z" transform="translate(0 -55.526)" fill="#e3a6b1" stroke="#2e3a61" stroke-miterlimit="10" stroke-width="1"/>
      <path id="Trazado_5611" data-name="Trazado 5611" d="M-1441.81,923.037a3.813,3.813,0,0,1-3.814,3.813,3.813,3.813,0,0,1-3.813-3.813,3.813,3.813,0,0,1,3.813-3.813A3.813,3.813,0,0,1-1441.81,923.037Z" transform="translate(-25.308 -23.193)" fill="none" stroke="#2b2e4f" stroke-miterlimit="10" stroke-width="1"/>
      <path id="Trazado_5612" data-name="Trazado 5612" d="M-1401.062,923.037a3.813,3.813,0,0,1-3.813,3.813,3.813,3.813,0,0,1-3.813-3.813,3.813,3.813,0,0,1,3.813-3.813A3.813,3.813,0,0,1-1401.062,923.037Z" transform="translate(-51.748 -23.193)" fill="none" stroke="#2b2e4f" stroke-miterlimit="10" stroke-width="1"/>
      <path id="Trazado_5613" data-name="Trazado 5613" d="M-1361.083,923.037a3.813,3.813,0,0,1-3.813,3.813,3.814,3.814,0,0,1-3.814-3.813,3.813,3.813,0,0,1,3.814-3.813A3.813,3.813,0,0,1-1361.083,923.037Z" transform="translate(-77.689 -23.193)" fill="none" stroke="#2b2e4f" stroke-miterlimit="10" stroke-width="1"/>
      <g id="Grupo_3716" data-name="Grupo 3716" transform="translate(-1477.487 929.226)" opacity="0.31">
        <rect id="Rect치ngulo_1672" data-name="Rect치ngulo 1672" width="220.68" height="151.527" rx="3.022" transform="translate(0 0)" fill="none" stroke="#2b2e4f" stroke-miterlimit="10" stroke-width="2"/>
        <path id="Trazado_5614" data-name="Trazado 5614" d="M-1196.08,1202.471h-139.527v-87.56h139.527Z" transform="translate(1378.319 -1079.392)" fill="none" stroke="#2b2e4f" stroke-miterlimit="10" stroke-width="2"/>
        <line id="L칤nea_1" data-name="L칤nea 1" x1="136.324" y1="86.137" transform="translate(42.712 35.519)" fill="none" stroke="#2b2e4f" stroke-miterlimit="10" stroke-width="2"/>
        <line id="L칤nea_2" data-name="L칤nea 2" y1="87.56" x2="139.527" transform="translate(42.712 35.519)" fill="none" stroke="#2b2e4f" stroke-miterlimit="10" stroke-width="2"/>
      </g>
    </g>
    <g id="Grupo_3740" data-name="Grupo 3740" transform="translate(-702.781 209.054)">
      <g id="ELEMENTOS" transform="translate(2147.288 159.914)">
        <g id="Grupo_3739" data-name="Grupo 3739" transform="translate(0)">
          <g id="Grupo_3738" data-name="Grupo 3738">
            <path id="Rect치ngulo_1687" data-name="Rect치ngulo 1687" d="M8.725,0H242.859a8.725,8.725,0,0,1,8.725,8.725V72.079a8.726,8.726,0,0,1-8.726,8.726H8.725A8.725,8.725,0,0,1,0,72.079V8.725A8.725,8.725,0,0,1,8.725,0Z" fill="#2b2e4f"/>
            <g id="Grupo_3733" data-name="Grupo 3733" transform="translate(16.284 12.854)">
              <path id="Trazado_5642" data-name="Trazado 5642" d="M1946.406,568.84a26.017,26.017,0,1,1,26.017-26.017A26.047,26.047,0,0,1,1946.406,568.84Z" transform="translate(-1920.388 -516.806)" fill="#fff"/>
            </g>
            <g id="Grupo_3734" data-name="Grupo 3734" transform="translate(88.659 25.382)">
              <line id="L칤nea_31" data-name="L칤nea 31" x2="128.725" transform="translate(1.68 1.679)" fill="#fff"/>
              <path id="Trazado_5643" data-name="Trazado 5643" d="M2167.426,540.354H2038.7a1.679,1.679,0,0,1,0-3.358h128.725a1.679,1.679,0,0,1,0,3.358Z" transform="translate(-2037.021 -536.996)" fill="#fff" opacity="0.38"/>
            </g>
            <g id="Grupo_3735" data-name="Grupo 3735" transform="translate(88.659 40.653)">
              <line id="L칤nea_32" data-name="L칤nea 32" x2="57.517" transform="translate(1.68 1.68)" fill="#fff"/>
              <path id="Trazado_5644" data-name="Trazado 5644" d="M2096.219,564.962H2038.7a1.679,1.679,0,0,1,0-3.358h57.518a1.679,1.679,0,0,1,0,3.358Z" transform="translate(-2037.021 -561.604)" fill="#fff" opacity="0.38"/>
            </g>
            <g id="Grupo_3736" data-name="Grupo 3736" transform="translate(159.867 40.653)">
              <line id="L칤nea_33" data-name="L칤nea 33" x2="57.518" transform="translate(1.679 1.68)" fill="#fff"/>
              <path id="Trazado_5645" data-name="Trazado 5645" d="M2210.97,564.962h-57.518a1.679,1.679,0,1,1,0-3.358h57.518a1.679,1.679,0,0,1,0,3.358Z" transform="translate(-2151.773 -561.604)" fill="#fff" opacity="0.38"/>
            </g>
            <g id="Grupo_3737" data-name="Grupo 3737" transform="translate(88.659 56.633)">
              <line id="L칤nea_34" data-name="L칤nea 34" x2="128.725" transform="translate(1.68 1.678)" fill="#fff"/>
              <path id="Trazado_5646" data-name="Trazado 5646" d="M2167.426,590.715H2038.7a1.679,1.679,0,1,1,0-3.358h128.725a1.679,1.679,0,1,1,0,3.358Z" transform="translate(-2037.021 -587.357)" fill="#fff" opacity="0.38"/>
            </g>
          </g>
          <path id="Trazado_5647" data-name="Trazado 5647" d="M1965.07,534.447a.74.74,0,0,1,.439.789c-.02,1.51-.008,3.021-.008,4.532,0,.534-.144.675-.681.681-1.085.014-2.17.007-3.253.049a1.268,1.268,0,0,0-1.3,1.33c-.033,1.137-.025,2.275-.033,3.413a1.574,1.574,0,0,0,.036.219h.35q2.043,0,4.085,0c.7,0,.845.2.759.9-.171,1.391-.318,2.784-.475,4.176-.03.264-.056.528-.1.789-.077.454-.194.558-.653.563-.809.007-1.617,0-2.426,0h-1.117c-.46,0-.461,0-.462.447q0,.894,0,1.787v12.128c0,.745-.118.859-.874.859h-5.426c-.6,0-.773-.172-.774-.78q0-6.989,0-13.979c0-.561.113-.537-.552-.537-.947,0-1.894,0-2.841,0-.562,0-.7-.141-.7-.695q0-2.474,0-4.947c0-.537.16-.707.7-.711,1.053-.007,2.107,0,3.16,0h.387a2.268,2.268,0,0,0,.031-.248c0-1.245.038-2.491-.013-3.733a7.2,7.2,0,0,1,.183-2.271,5.9,5.9,0,0,1,2.609-3.417,7.843,7.843,0,0,1,3.952-1.277,1.477,1.477,0,0,0,.275-.066Z" transform="translate(-1914.985 -510.646)" fill="#155c91"/>
        </g>
      </g>
    </g>
    <g id="JtFVRz.tif" transform="translate(627.203 393.617)">
      <g id="Grupo_3691" data-name="Grupo 3691" transform="translate(621.798 -24.649)">
        <path id="Trazado_5597" data-name="Trazado 5597" d="M621.8,50.661c.091-.419.2-.834.272-1.256a18.805,18.805,0,0,1,5.372-10.274c4.807-4.816,9.557-9.691,14.451-14.417,5.537-5.347,12.081-6.794,19.429-4.495a1.02,1.02,0,0,0,1.224-.276q1.852-1.921,3.772-3.775a1.079,1.079,0,0,0,.317-1.3c-2.221-7.076-1.01-13.533,4.089-18.93,5.163-5.465,10.449-10.84,16-15.91,10.2-9.324,27.153-3.97,30.369,9.472A18.271,18.271,0,0,1,712.05,7.477c-4.758,4.864-9.542,9.706-14.439,14.429-5.563,5.366-12.123,6.832-19.521,4.522a1.247,1.247,0,0,0-1.037.211q-2.042,1.927-3.973,3.97a1.247,1.247,0,0,0-.24,1.033c2.379,7.632.727,14.277-4.876,19.938-4.479,4.526-9.029,8.981-13.5,13.519a19.273,19.273,0,0,1-11.742,6.013,1.188,1.188,0,0,0-.328.15h-3.746a2.029,2.029,0,0,0-.421-.163,18.588,18.588,0,0,1-15.984-14.524c-.173-.717-.3-1.445-.45-2.169ZM682.577,2.5c4.961.427,7.576,3.018,8.123,7.976.3-.2.41-.557.644-.793q5.51-5.546,11.045-11.067a12.381,12.381,0,0,0,1-1.11,5.592,5.592,0,0,0-3.187-8.87,6.51,6.51,0,0,0-4.25.653,1.785,1.785,0,0,1-2.456-.85,1.837,1.837,0,0,1,.858-2.47,8.921,8.921,0,0,1,5.95-1.115,8.955,8.955,0,0,1,7.421,6.086A9.058,9.058,0,0,1,705.378.907c-4.721,4.768-9.447,9.532-14.256,14.211a9.46,9.46,0,0,1-3.648,2.325,8.747,8.747,0,0,0-3.86,2.592c-.844.877-1.721,1.722-2.576,2.588a6.991,6.991,0,0,0-.456.569,14.292,14.292,0,0,0,13.364-3.054q8.1-7.78,15.929-15.842a13.946,13.946,0,0,0,3.882-12.3,14.249,14.249,0,0,0-9.42-11.837c-5.516-2.124-10.828-1.3-15.178,2.72C683.8-12.168,678.72-6.911,673.63-1.677A16.925,16.925,0,0,0,670.636,2.8a14.029,14.029,0,0,0-.767,9.825c1.762-1.77,3.411-3.413,5.034-5.081.175-.18.177-.52.286-.774A12.63,12.63,0,0,1,676.716,3.4c2.042-2.349,4.27-4.543,6.5-6.718a1.759,1.759,0,0,1,2.788.509,1.882,1.882,0,0,1-.47,2.374C684.607.519,683.645,1.442,682.577,2.5ZM669.658,34c-1.793,1.79-3.43,3.41-5.042,5.054a1.585,1.585,0,0,0-.305.762,9.118,9.118,0,0,1-2.484,4.633c-4.977,4.994-9.925,10.02-14.979,14.937a9.264,9.264,0,0,1-11.8.732A9.364,9.364,0,0,1,634.037,45.8c4.739-4.792,9.489-9.574,14.319-14.273A9.583,9.583,0,0,1,652,29.194a8.62,8.62,0,0,0,3.862-2.584c.425-.456.88-.885,1.321-1.326l1.868-1.875c-5.118-1.126-9.73-.385-13.408,3.036-5.57,5.181-10.91,10.618-16.2,16.091a13.755,13.755,0,0,0-3.725,12.075A14.259,14.259,0,0,0,635.2,66.5c5.522,2.107,10.822,1.255,15.165-2.774,5.326-4.94,10.4-10.157,15.473-15.364C669.689,44.408,670.865,39.617,669.658,34Zm-13.3,6.3a4.425,4.425,0,0,0,3.227-1.52q12.8-12.82,25.612-25.623c.2-.2.4-.4.577-.613a3.6,3.6,0,0,0,.667-3.845,3.561,3.561,0,0,0-3.123-2.339,4.055,4.055,0,0,0-3.391,1.457Q667.1,20.673,654.252,33.51a6.312,6.312,0,0,0-.8.912,3.586,3.586,0,0,0-.235,3.892A3.634,3.634,0,0,0,656.361,40.3Zm-7.406-4.062c-.223.189-.395.314-.544.463q-5.825,5.819-11.642,11.645a8.327,8.327,0,0,0-.788.924,5.609,5.609,0,0,0,8.736,7.01q5.847-5.8,11.646-11.64c.146-.146.267-.318.45-.539C651.935,43.717,649.337,41.115,648.954,36.24Z" transform="translate(-621.798 24.649)" fill="#2b2e4f"/>
        <path id="Trazado_5598" data-name="Trazado 5598" d="M725.085,82.709c.457-.6.735-1.286,1.229-1.522a3.179,3.179,0,0,1,1.831.007c.319.063.591.433.854.694q3.507,3.492,7,7a4.494,4.494,0,0,1,.762.935,1.832,1.832,0,0,1-2.448,2.49,3.86,3.86,0,0,1-.874-.689c-2.406-2.393-4.815-4.782-7.19-7.205A12.328,12.328,0,0,1,725.085,82.709Z" transform="translate(-705.741 -61.256)" fill="#2b2e4f"/>
        <path id="Trazado_5599" data-name="Trazado 5599" d="M976.283,332.137a4.756,4.756,0,0,1-1.149-.694q-3.834-3.759-7.6-7.587a1.876,1.876,0,1,1,2.624-2.656c2.573,2.534,5.115,5.1,7.664,7.656a1.893,1.893,0,0,1,.488,2.219A1.873,1.873,0,0,1,976.283,332.137Z" transform="translate(-902.201 -255.858)" fill="#2b2e4f"/>
        <path id="Trazado_5600" data-name="Trazado 5600" d="M822.524,36.387c0,1.748.009,3.5,0,5.243-.009,1.4-.7,2.219-1.85,2.231s-1.884-.8-1.888-2.188q-.018-5.243,0-10.486c0-1.389.713-2.231,1.847-2.245,1.161-.015,1.886.854,1.893,2.3C822.531,32.954,822.524,34.671,822.524,36.387Z" transform="translate(-781.885 -18.905)" fill="#2b2e4f"/>
        <path id="Trazado_5601" data-name="Trazado 5601" d="M682.629,176.2c-1.81,0-3.621.035-5.43-.01a1.868,1.868,0,1,1,.022-3.728c3.651-.009,7.3-.02,10.954.007a1.818,1.818,0,0,1,1.965,1.823,1.84,1.84,0,0,1-1.987,1.9C686.312,176.223,684.47,176.2,682.629,176.2Z" transform="translate(-665.206 -135.538)" fill="#2b2e4f"/>
        <path id="Trazado_5602" data-name="Trazado 5602" d="M1008.164,271.446c1.779,0,3.558-.021,5.337.007a1.848,1.848,0,0,1,2.009,2.283,1.757,1.757,0,0,1-1.826,1.439q-5.57.042-11.141,0a1.8,1.8,0,0,1-1.88-1.809,1.815,1.815,0,0,1,1.885-1.9c1.872-.046,3.745-.012,5.617-.012Z" transform="translate(-929.708 -215.987)" fill="#2b2e4f"/>
        <path id="Trazado_5603" data-name="Trazado 5603" d="M921.525,361.9c0,1.717.01,3.433,0,5.149-.01,1.375-.741,2.223-1.875,2.218s-1.86-.856-1.864-2.231q-.015-5.243,0-10.486c0-1.39.72-2.206,1.877-2.2s1.852.816,1.861,2.216C921.534,358.337,921.525,360.116,921.525,361.9Z" transform="translate(-862.345 -283.365)" fill="#2b2e4f"/>
        <path id="Trazado_5604" data-name="Trazado 5604" d="M974.535,60.3a1.838,1.838,0,0,1,1.879-1.805,1.856,1.856,0,0,1,1.792,1.9,1.836,1.836,0,1,1-3.671-.094Z" transform="translate(-908.475 -42.92)" fill="#2b2e4f"/>
      </g>
    </g>
  </g>
</svg>
