<svg xmlns="http://www.w3.org/2000/svg" xmlns:xlink="http://www.w3.org/1999/xlink" width="1914" height="1145" viewBox="0 0 1914 1145">
  <defs>
    <clipPath id="clip-path">
      <rect id="Rectángulo_2204" data-name="Rectángulo 2204" width="1914" height="1145" transform="translate(0 302)" fill="none" stroke="#707070" stroke-width="1"/>
    </clipPath>
  </defs>
  <g id="Enmascarar_grupo_2" data-name="Enmascarar grupo 2" transform="translate(0 -302)" clip-path="url(#clip-path)">
    <g id="Grupo_3869" data-name="Grupo 3869" transform="matrix(0.225, 0.974, -0.974, 0.225, 56.387, 135.335)">
      <path id="Trazado_5828" data-name="Trazado 5828" d="M486.864,94.412C460.876,69.686,438.522,40.5,408.141,21.426c-60.565-38.04-148.373-24.031-194.1,30.959C196.93,72.961,185.708,97.65,171.9,120.572,134.534,182.562,78.353,231.31,39.42,292.326s-57.7,145.08-15.182,203.66c42.794,58.968,127.688,67.646,184.491,113.282,28.145,22.615,48.405,53.592,75.142,77.858,84.334,76.558,232.761,64.922,304.142-23.833,44.048-54.765,59.41-130,109.881-178.9,17.888-17.338,39.484-30.571,56.894-48.4,22.714-23.264,37.274-53.357,47.665-84.181,13.874-41.171,20.8-86.815,6.215-127.742C783.3,152.938,725.606,153.534,664.346,160.4,598.071,167.822,534.521,139.75,486.864,94.412Z" transform="translate(0 0)" fill="#84eeeb"/>
    </g>
    <path id="Trazado_5869" data-name="Trazado 5869" d="M412.841,860.405c-42.265,0-82.072-14.46-110.957-40.681-9.545-8.665-18.139-18.5-26.448-28.011-10.1-11.555-20.539-23.5-32.592-33.181-18.395-14.78-41.05-24.765-62.953-34.417-30.845-13.594-62.733-27.656-82.79-55.276C60.822,618.847,80.815,549.6,108.968,505.489c14.787-23.174,32.947-44.388,50.51-64.906,18.948-22.137,38.543-45.028,53.749-70.262,3.3-5.461,6.4-11.051,9.5-16.64,7.067-12.734,14.382-25.909,23.913-37.371,37.08-44.573,107.186-55.773,156.283-24.929,16.825,10.561,30.7,25.12,44.1,39.2,5.916,6.214,12.038,12.627,18.3,18.593h0c39.836,37.9,90.013,56.6,137.6,51.235,49.63-5.54,95.865-5.767,116.433,51.888,10.1,28.33,8.459,62.755-4.879,102.328-9.773,29-22.251,51-38.146,67.271-7.372,7.564-15.76,14.14-23.87,20.5a264.673,264.673,0,0,0-20.973,17.656c-21.662,20.994-35.34,48.969-48.557,76.014-10.852,22.187-22.059,45.12-37.734,64.6-27.237,33.877-70.162,55.439-117.768,59.168C422.549,860.214,417.67,860.405,412.841,860.405ZM340.427,279.236c-33.828,0-67.783,14.14-89.686,40.482-9.211,11.08-16.4,24.027-23.359,36.548-3.132,5.646-6.264,11.292-9.588,16.8-15.433,25.617-35.177,48.678-54.268,70.972-17.443,20.376-35.482,41.455-50.07,64.317C86.206,551.057,66.7,617.881,101.418,665.7c19.2,26.47,49.033,39.615,80.617,53.536,22.223,9.794,45.205,19.929,64.147,35.149,12.422,9.971,23.018,22.1,33.266,33.828,8.21,9.4,16.7,19.112,26.015,27.57,31.107,28.231,75.389,42.308,121.56,38.742,46.143-3.622,87.7-24.467,114.039-57.208,15.284-19.005,26.37-41.675,37.087-63.6,13.423-27.457,27.308-55.852,49.637-77.5A269.13,269.13,0,0,1,649.179,638.2c7.976-6.257,16.221-12.72,23.345-20.021,15.327-15.7,27.4-37.038,36.91-65.269,12.947-38.4,14.6-71.647,4.915-98.826-19.261-53.99-63.415-53.721-110.822-48.38C554.3,411.187,502.633,392,461.661,353.027h0c-6.364-6.051-12.521-12.521-18.487-18.778-13.182-13.842-26.818-28.153-43.075-38.359C382.181,284.641,361.329,279.236,340.427,279.236Z" transform="translate(-320.586 511.044)" fill="#9a5aeb"/>
  </g>
</svg>
